<?xml version="1.0" encoding="UTF-8" standalone="no"?>
<!-- Created with Inkscape (http://www.inkscape.org/) -->

<svg
   xmlns:dc="http://purl.org/dc/elements/1.1/"
   xmlns:cc="http://creativecommons.org/ns#"
   xmlns:rdf="http://www.w3.org/1999/02/22-rdf-syntax-ns#"
   xmlns:svg="http://www.w3.org/2000/svg"
   xmlns="http://www.w3.org/2000/svg"
   xmlns:sodipodi="http://sodipodi.sourceforge.net/DTD/sodipodi-0.dtd"
   xmlns:inkscape="http://www.inkscape.org/namespaces/inkscape"
   width="1024"
   height="1024"
   viewBox="0 0 1024 1024"
   id="svg2"
   version="1.1"
   inkscape:version="0.91 r13725"
   sodipodi:docname="anh.svg"
   enable-background="new"
   inkscape:export-filename="/Users/iain/Code/Clojure/Descjop/anh/resources/anh.png"
   inkscape:export-xdpi="90"
   inkscape:export-ydpi="90">
  <defs
     id="defs4">
    <filter
       style="color-interpolation-filters:sRGB;"
       inkscape:label="Feather"
       id="filter3435">
      <feGaussianBlur
         stdDeviation="8.78572"
         result="blur"
         id="feGaussianBlur3437" />
      <feComposite
         in="SourceGraphic"
         in2="blur"
         operator="atop"
         result="composite1"
         id="feComposite3439" />
      <feComposite
         in2="composite1"
         operator="in"
         result="composite2"
         id="feComposite3441" />
      <feComposite
         in2="composite2"
         operator="in"
         result="fbSourceGraphic"
         id="feComposite3443" />
      <feColorMatrix
         result="fbSourceGraphicAlpha"
         in="fbSourceGraphic"
         values="0 0 0 -1 0 0 0 0 -1 0 0 0 0 -1 0 0 0 0 1 0"
         id="feColorMatrix3567" />
      <feGaussianBlur
         id="feGaussianBlur3569"
         stdDeviation="21.55"
         result="blur"
         in="fbSourceGraphic" />
      <feComposite
         id="feComposite3571"
         in2="blur"
         in="fbSourceGraphic"
         operator="atop"
         result="composite1" />
      <feComposite
         id="feComposite3573"
         in2="composite1"
         operator="in"
         result="composite2" />
      <feComposite
         id="feComposite3575"
         in2="composite2"
         operator="in"
         result="fbSourceGraphic" />
      <feColorMatrix
         result="fbSourceGraphicAlpha"
         in="fbSourceGraphic"
         values="0 0 0 -1 0 0 0 0 -1 0 0 0 0 -1 0 0 0 0 1 0"
         id="feColorMatrix3577" />
      <feGaussianBlur
         id="feGaussianBlur3579"
         stdDeviation="21.55"
         result="blur"
         in="fbSourceGraphic" />
      <feComposite
         id="feComposite3581"
         in2="blur"
         in="fbSourceGraphic"
         operator="atop"
         result="composite1" />
      <feComposite
         id="feComposite3583"
         in2="composite1"
         operator="in"
         result="composite2" />
      <feComposite
         id="feComposite3585"
         in2="composite2"
         operator="in"
         result="composite3" />
    </filter>
    <filter
       inkscape:collect="always"
       style="color-interpolation-filters:sRGB"
       id="filter4583">
      <feBlend
         inkscape:collect="always"
         mode="darken"
         in2="BackgroundImage"
         id="feBlend4585" />
    </filter>
    <filter
       style="color-interpolation-filters:sRGB;"
       inkscape:label="Drop Shadow"
       id="filter4701">
      <feFlood
         flood-opacity="0.498039"
         flood-color="rgb(0,0,0)"
         result="flood"
         id="feFlood4703" />
      <feComposite
         in="flood"
         in2="SourceGraphic"
         operator="in"
         result="composite1"
         id="feComposite4705" />
      <feGaussianBlur
         in="composite1"
         stdDeviation="8.5"
         result="blur"
         id="feGaussianBlur4707" />
      <feOffset
         dx="18.1"
         dy="15.7"
         result="offset"
         id="feOffset4709" />
      <feComposite
         in="SourceGraphic"
         in2="offset"
         operator="over"
         result="composite2"
         id="feComposite4711" />
    </filter>
  </defs>
  <sodipodi:namedview
     id="base"
     pagecolor="#ffffff"
     bordercolor="#666666"
     borderopacity="1.0"
     inkscape:pageopacity="0.0"
     inkscape:pageshadow="2"
     inkscape:zoom="0.63378906"
     inkscape:cx="324.98387"
     inkscape:cy="488.97682"
     inkscape:document-units="px"
     inkscape:current-layer="layer3"
     showgrid="false"
     units="px"
     inkscape:window-width="1440"
     inkscape:window-height="851"
     inkscape:window-x="0"
     inkscape:window-y="1"
     inkscape:window-maximized="1" />
  <metadata
     id="metadata7">
    <rdf:RDF>
      <cc:Work
         rdf:about="">
        <dc:format>image/svg+xml</dc:format>
        <dc:type
           rdf:resource="http://purl.org/dc/dcmitype/StillImage" />
        <dc:title></dc:title>
      </cc:Work>
    </rdf:RDF>
  </metadata>
  <g
     inkscape:groupmode="layer"
     id="layer5"
     inkscape:label="bg"
     style="display:inline">
    <circle
       style="fill:#d40000;fill-rule:evenodd;stroke:#000000;stroke-width:1.06659257px;stroke-linecap:butt;stroke-linejoin:miter;stroke-opacity:1;filter:url(#filter4701)"
       id="path4389"
       cx="511.21109"
       cy="508.05545"
       r="479.62155" />
  </g>
  <g
     style="display:inline"
     inkscape:label="bg copy"
     id="g4460"
     inkscape:groupmode="layer">
    <path
       style="fill:#ffcc00;fill-rule:evenodd;stroke:#000000;stroke-width:1.06659257px;stroke-linecap:butt;stroke-linejoin:miter;stroke-opacity:1"
       d="M 608.38477,38.476562 307.46094,261.5625 172.03711,169.38281 A 479.62155,479.62155 0 0 0 31.589844,508.05469 479.62155,479.62155 0 0 0 465,985.36523 L 509.5918,843.49805 863.51172,832.63867 A 479.62155,479.62155 0 0 0 945.28516,710.74219 L 619.92578,479.10156 734.98242,84.166016 A 479.62155,479.62155 0 0 0 608.38477,38.476562 Z"
       id="circle4462"
       inkscape:connector-curvature="0" />
  </g>
  <g
     inkscape:label="trunc star"
     id="g4424"
     inkscape:groupmode="layer"
     style="display:none">
    <path
       style="fill:#ffcc00;fill-rule:evenodd;stroke:#000000;stroke-width:1.06659257px;stroke-linecap:butt;stroke-linejoin:miter;stroke-opacity:1"
       d="M 490.48242,29.167969 A 479.62155,479.62155 0 0 0 228.8418,121.08008 l 27.84179,200.15234 -213.749996,84.55274 a 479.62155,479.62155 0 0 0 -11.34375,102.26953 479.62155,479.62155 0 0 0 24.542968,149.55859 l 238.699218,42.4375 15.19922,242.80664 a 479.62155,479.62155 0 0 0 201.17969,44.82031 479.62155,479.62155 0 0 0 46.80273,-2.76562 l 108.88281,-204.08203 197.5625,50.79101 A 479.62155,479.62155 0 0 0 984.42188,582.49805 L 858.69727,451.9375 947.98242,311.34375 A 479.62155,479.62155 0 0 0 754.49023,95.324219 L 605.17188,167.89062 490.48242,29.167969 Z"
       id="circle4426"
       inkscape:connector-curvature="0" />
  </g>
  <g
     inkscape:groupmode="layer"
     id="layer6"
     inkscape:label="star"
     style="display:none" />
  <g
     inkscape:label="star copy"
     id="g4420"
     inkscape:groupmode="layer"
     style="display:none" />
  <g
     inkscape:groupmode="layer"
     id="layer2"
     inkscape:label="nh"
     style="display:none;filter:url(#filter4583)">
    <text
       xml:space="preserve"
       style="font-style:normal;font-variant:normal;font-weight:normal;font-stretch:normal;font-size:437.5px;line-height:125%;font-family:Trattatello;-inkscape-font-specification:Trattatello;letter-spacing:0px;word-spacing:0px;fill:#000000;fill-opacity:1;stroke:none;stroke-width:1px;stroke-linecap:butt;stroke-linejoin:miter;stroke-opacity:1"
       x="479.99997"
       y="626.85712"
       id="text3510"
       sodipodi:linespacing="125%"><tspan
         sodipodi:role="line"
         id="tspan3512"
         x="479.99997"
         y="626.85712">nh</tspan></text>
  </g>
  <g
     inkscape:label="a"
     inkscape:groupmode="layer"
     id="layer1"
     transform="translate(0,-28.362161)"
     style="display:none">
    <text
       xml:space="preserve"
       style="font-style:normal;font-variant:normal;font-weight:normal;font-stretch:normal;font-size:875px;line-height:125%;font-family:Trattatello;-inkscape-font-specification:Trattatello;letter-spacing:0px;word-spacing:0px;display:inline;fill:#000000;fill-opacity:1;stroke:none;stroke-width:1px;stroke-linecap:butt;stroke-linejoin:miter;stroke-opacity:1;filter:url(#filter4583)"
       x="194.28571"
       y="581.14288"
       id="text3506"
       sodipodi:linespacing="125%"
       transform="translate(0,28.362161)"><tspan
         sodipodi:role="line"
         id="tspan3508"
         x="194.28571"
         y="581.14288">a</tspan></text>
  </g>
  <g
     inkscape:groupmode="layer"
     id="layer3"
     inkscape:label="anh"
     style="display:inline">
    <text
       xml:space="preserve"
       style="font-style:normal;font-weight:normal;font-size:25px;line-height:125%;font-family:sans-serif;letter-spacing:0px;word-spacing:0px;fill:#000000;fill-opacity:1;stroke:none;stroke-width:1px;stroke-linecap:butt;stroke-linejoin:miter;stroke-opacity:1"
       x="44.178738"
       y="102.55779"
       id="text3572"
       sodipodi:linespacing="125%"><tspan
         sodipodi:role="line"
         id="tspan3574"
         x="44.178738"
         y="102.55779" /></text>
    <text
       xml:space="preserve"
       style="font-style:normal;font-weight:normal;font-size:25px;line-height:125%;font-family:sans-serif;letter-spacing:0px;word-spacing:0px;fill:#000000;fill-opacity:1;stroke:none;stroke-width:1px;stroke-linecap:butt;stroke-linejoin:miter;stroke-opacity:1"
       x="48.912174"
       y="97.824341"
       id="text3576"
       sodipodi:linespacing="125%"><tspan
         sodipodi:role="line"
         id="tspan3578"
         x="48.912174"
         y="97.824341" /></text>
    <text
       xml:space="preserve"
       style="font-style:normal;font-variant:normal;font-weight:normal;font-stretch:normal;font-size:437.5px;line-height:125%;font-family:Trattatello;-inkscape-font-specification:Trattatello;letter-spacing:0px;word-spacing:0px;display:inline;fill:#000000;fill-opacity:1;stroke:none;stroke-width:1px;stroke-linecap:butt;stroke-linejoin:miter;stroke-opacity:1;"
       x="469.29617"
       y="635.22278"
       id="text3510-1"
       sodipodi:linespacing="125%"
       transform="matrix(1.3006302,-0.14260277,0.02990389,1.288154,-174.33698,56.014438)"><tspan
         dx="0 -25"
         sodipodi:role="line"
         id="tspan3512-2"
         x="469.29617"
         y="635.22278">nh</tspan></text>
    <text
       xml:space="preserve"
       style="font-style:normal;font-variant:normal;font-weight:normal;font-stretch:normal;font-size:875px;line-height:125%;font-family:Trattatello;-inkscape-font-specification:Trattatello;letter-spacing:0px;word-spacing:0px;display:inline;fill:#000000;fill-opacity:1;stroke:none;stroke-width:1px;stroke-linecap:butt;stroke-linejoin:miter;stroke-opacity:1;"
       x="183.58189"
       y="589.50848"
       id="text3506-4"
       sodipodi:linespacing="125%"
       transform="matrix(1.3006302,-0.14260277,0.02990389,1.288154,-174.33698,56.014438)"><tspan
         sodipodi:role="line"
         id="tspan3508-9"
         x="183.58189"
         y="589.50848">a</tspan></text>
    <path
       style="display:inline"
       id="path3580-9"
       d="m 260.15214,147.58541 c 11.44546,-9.38992 24.69951,-16.42629 37.21416,-24.00118 5.23789,-2.41234 10.56468,-4.62006 16.13868,-5.7411 5.55484,-0.86925 11.13156,-1.13162 16.69054,-1.42961 4.90632,-0.49898 9.52187,-0.60401 14.04746,0.96131 3.74271,1.03357 6.45823,3.42049 8.82169,6.28293 2.38863,3.09603 3.82744,6.78044 5.06557,10.5134 0.89874,3.18104 1.90688,6.30007 2.49083,9.58152 0.35496,3.13179 0.30951,6.32715 0.25147,9.50903 -0.12539,3.49171 -0.31958,6.98651 -0.45571,10.47892 -0.16023,3.64052 -0.0185,7.25688 -0.89444,10.87513 -1.14267,3.6675 -2.75916,7.16592 -4.81694,10.47334 -1.70012,3.0252 -3.92012,5.60396 -6.42131,8.01482 -2.32996,2.21465 -4.53174,4.56255 -6.86728,6.76995 -9.01209,7.0616 -19.25074,12.29726 -28.99065,18.19625 -3.17988,1.79594 -6.45825,3.33727 -9.80604,4.73447 -3.07541,1.37969 -6.30292,2.23309 -9.42925,3.40625 -3.12296,1.07539 -6.21359,2.60262 -9.02688,4.40251 37.33651,-21.25645 19.72638,-13.90745 13.9059,-7.2989 -1.19261,1.62994 -1.77299,3.60691 -2.57126,5.43449 -1.1026,1.9859 -2.37412,3.89215 -3.61387,5.80746 -1.08848,2.084 -2.0269,4.24971 -2.896,6.42078 -0.8477,1.89978 -0.95787,3.94042 -1.12145,5.92897 -0.0504,2.13057 -0.45855,4.32409 0.0456,6.37371 1.7404,8.64333 2.284,1.83134 -21.41566,12.38745 -0.0583,0.0259 -1.66876,-3.81445 -1.77782,-4.05842 -1.46783,-3.02297 -2.08,-6.3493 -2.37131,-9.75395 -0.17125,-3.5664 -0.004,-7.17041 0.11876,-10.76196 -0.19859,-3.537 0.69377,-6.88286 2.06336,-10.24187 1.5528,-3.32473 3.42076,-6.55044 5.60325,-9.54403 1.73126,-2.57978 4.09797,-4.3668 6.58642,-6.12608 58.23674,-35.51968 1.33995,-0.83588 2.01911,-1.23705 12.25553,-7.23912 15.3764,-11.21366 24.97026,-14.29176 1.89694,-1.24087 4.15524,-1.66862 6.30293,-1.94974 2.24691,-0.31621 4.49744,-0.36494 6.74331,-0.48114 2.34046,0.17122 4.44811,-0.55033 6.70644,-1.25144 2.25929,-0.96441 4.98526,-1.24695 7.05276,-2.64454 -0.74935,0.46203 2.42743,-1.32088 1.8359,-0.96047 -6.56941,4.00268 -26.25297,16.05311 -19.7371,11.95598 13.80139,-8.67823 14.62726,-10.66925 23.7764,-13.87776 2.52578,-0.70633 5.13973,-1.77597 7.34278,-3.3118 -30.46073,18.81236 -20.55789,15.22754 -14.50731,6.22574 1.56018,-2.16006 2.54221,-4.58175 3.9696,-6.81457 1.28416,-2.54127 2.23219,-5.23119 3.13812,-7.90043 0.8967,-2.57182 1.1476,-5.23238 1.37013,-7.87049 0.13187,-2.42657 0.40002,-4.87382 0.23945,-7.27807 -0.32707,-2.21622 -2.08891,-3.6638 -3.28961,-5.40554 -0.95578,-1.97785 -2.61327,-3.22089 -4.25489,-4.56347 -1.4883,-1.373 -3.31925,-2.23351 -5.14093,-3.12741 -1.99031,-0.97098 -3.96943,-1.80515 -5.57148,-3.32346 -1.94843,-1.42239 -3.8579,-2.86852 -5.84769,-4.23581 -3.43157,-1.7588 -7.1926,-2.82348 -10.78815,-4.24667 -3.07456,-1.30767 -6.36441,-1.77594 -9.76576,-1.90147 -3.20171,-0.32303 -6.0061,0.43476 -9.01172,1.789 -7.16289,5.58597 -1.3313,0.96587 18.11882,-10.84662 0.35676,-0.21667 -0.71347,0.43602 -1.05034,0.68453 -0.95406,0.70384 -1.73608,1.6318 -2.52699,2.50306 -1.87634,2.54669 -3.95229,4.88335 -6.16951,7.1492 -1.58498,2.03654 -3.46005,3.78034 -5.39556,5.47609 -5.87539,8.69142 -9.85957,7.88419 -23.70583,16.13892 -0.80421,0.47944 -1.50048,0.27487 -2.30424,0.19882 -2.32776,-0.38745 -3.52977,-2.11716 -4.34012,-4.14239 -0.76626,-2.33124 -0.51599,-4.6376 0.24534,-7.04909 1.35107,-3.04272 3.2562,-5.83038 5.00693,-8.677 1.75302,-2.74126 3.69827,-5.38467 5.76876,-7.91135 7.01584,-8.40328 17.54801,-13.22517 27.14793,-17.89559 2.88654,-0.47612 5.67386,-1.40014 8.53659,-2.0198 2.74952,-0.91057 5.40042,-2.01767 8.06703,-3.1437 2.21783,-1.09005 4.7172,-0.8076 6.91616,-1.79384 1.9838,-1.53474 4.33174,-2.39928 6.70555,-2.93179 2.18252,-0.39151 4.36942,-0.44038 6.55414,-0.56352 2.56702,-0.1685 5.27355,0.0549 7.49553,1.18465 2.23949,0.46268 3.41446,2.32518 5.21946,3.43 1.87541,1.59371 3.41087,3.54401 4.85329,5.53257 1.54945,1.46467 2.54839,3.36674 3.98171,4.9347 1.61908,1.55708 2.73474,3.38569 3.32476,5.58078 0.60257,1.99154 1.08281,4.01207 1.84712,5.93543 0.87499,1.97283 1.10927,4.20613 1.23919,6.39732 0.0559,2.47247 -0.0464,4.95915 -0.17377,7.44391 -0.072,2.42783 -0.18381,4.85792 -0.25063,7.28539 -0.0839,2.17663 -0.16392,4.35275 -0.26236,6.5301 -0.26047,3.01261 -1.31736,5.94471 -2.76108,8.68557 -1.52625,2.41568 -3.06148,4.84142 -4.80326,7.12081 -1.75517,1.79204 -3.05075,3.93919 -4.82146,5.70775 -1.73406,1.27895 -3.45607,2.53443 -5.00167,4.04462 -1.50012,1.66336 -3.13748,3.17388 -4.86902,4.59056 -2.17225,1.68338 -4.23188,3.50124 -6.23129,5.38852 -7.03064,6.62032 -1.79167,1.80419 -22.47208,14.13911 -0.17825,0.10634 -2.15354,0.52909 -2.39899,0.61676 -0.14845,0.053 -1.82581,0.8835 -2.00594,0.97217 -11.7428,7.26794 28.28437,-17.21632 14.80118,-8.78685 -1.53827,1.37789 -3.18156,2.62075 -4.72867,3.99031 -2.36116,1.94711 -4.12125,4.45328 -6.36512,6.50778 -1.85159,1.54754 -3.38187,3.25874 -4.63376,5.29932 -1.22643,1.71858 -2.14045,3.59434 -3.35102,5.32433 -14.88584,10.27079 -24.46274,18.2223 -22.04501,4.57556 1.26417,-3.62159 3.97864,-6.66227 6.74525,-9.3446 10.06119,-6.7891 17.06067,-13.87434 27.77853,-14.62829 2.23586,-0.12405 4.46818,-0.17345 6.70306,-0.27552 2.39993,-0.0752 4.80261,-0.22006 7.20414,-0.3322 1.83509,0.0806 3.40132,-0.44917 4.96256,-1.5355 0,0 -18.96304,15.44212 -18.96304,15.44212 l 0,0 c -1.83538,0.57559 -3.64561,0.80963 -5.52335,0.78143 -2.4076,0.11899 -4.8135,0.20026 -7.22126,0.32387 -2.19828,0.0777 -4.40301,0.15626 -6.60415,0.42254 -8.5603,1.46138 -21.95108,13.11254 13.71814,-9.93725 -2.96368,1.96635 -5.42836,5.0085 -7.33083,7.95367 -0.5593,1.34342 -0.56404,2.22374 -0.54111,3.61035 0.14753,8.91873 9.23943,-3.61209 -20.92971,13.26974 1.45668,-1.60849 2.62686,-3.29147 3.5146,-5.24335 1.56716,-1.91333 2.32334,-4.3741 4.52617,-5.81234 0.76881,-0.72238 1.6859,-1.2748 2.44212,-2.01034 1.38755,-1.3496 2.16008,-3.3563 3.85811,-4.45843 1.46354,-1.44431 2.95383,-2.86291 4.6564,-4.02039 0.79954,-0.9585 1.61861,-1.46383 2.67766,-2.11933 6.11058,-3.78206 15.51483,-10.57174 23.6787,-14.38543 1.03996,-0.40649 2.14761,-0.67775 3.15688,-1.17082 0.36429,-0.17796 1.40574,-0.81978 1.05993,-0.60444 -22.43464,13.96979 -25.70417,16.08359 -18.41012,11.38643 1.99946,-1.91629 3.97725,-3.87469 6.16389,-5.5763 1.71133,-1.36627 3.43846,-2.63479 4.90016,-4.26517 1.51115,-1.67205 3.04929,-3.21374 4.91772,-4.46217 2.33352,-1.20019 3.27669,-3.31389 5.02132,-5.17279 1.93838,-2.06284 3.42411,-4.42057 4.96516,-6.77724 1.64671,-2.33345 2.70245,-4.84595 3.24078,-7.58321 0.0653,-2.17197 0.14928,-4.34455 0.23355,-6.51747 0.12276,-2.44251 0.2057,-4.88351 0.32655,-7.32601 0.0618,-2.41237 0.18674,-4.82919 0.17133,-7.23626 -0.0467,-1.96193 -0.12456,-3.97504 -0.89528,-5.74798 -0.819,-2.02225 -1.30134,-4.1358 -2.00826,-6.2086 -0.38072,-1.91874 -1.43264,-3.38888 -2.81566,-4.70686 -1.39236,-1.68192 -2.57953,-3.52127 -4.0758,-5.11748 -1.2618,-1.83306 -2.69915,-3.57941 -4.49444,-4.91002 -1.57943,-1.20805 -2.93213,-2.50973 -4.9716,-3.02434 -2.25211,-0.5765 -4.56057,-0.67346 -6.94335,-0.39223 -2.08916,0.13531 -4.2047,0.31593 -6.24545,1.00015 -2.28559,0.87746 -4.39632,2.12092 -6.69247,2.92691 -2.29524,0.40892 -4.56508,0.94693 -6.72518,1.9808 -2.67204,1.16171 -5.47697,1.97254 -8.24186,2.79561 -2.76592,0.77582 -5.6582,1.16664 -8.26618,2.50855 -7.77277,4.23753 0.67608,-0.34528 18.16245,-11.19025 2.29797,-1.42517 -2.55104,1.41743 -3.42511,2.24946 -0.383,0.36457 -0.75488,0.74063 -1.13233,1.11095 -1.94162,2.56213 -4.05532,4.98348 -5.8703,7.65076 -1.70715,2.75523 -3.45529,5.48383 -5.11332,8.26157 -0.93391,1.85075 -1.39794,3.57748 -0.8913,5.52205 0.4467,1.34673 1.20102,2.15189 2.79997,1.72573 7.00858,-3.33112 20.56641,-12.93465 -17.81328,11.12958 -0.12527,0.0786 3.51561,-1.89588 2.47588,-2.21905 1.22653,-2.53923 3.84494,-3.38011 5.39952,-5.74974 1.97729,-2.43625 4.64403,-4.27708 6.10475,-7.10799 7.16318,-8.34085 14.79836,-13.74013 26.41004,-17.71009 3.19848,-1.04833 6.39817,-1.33894 9.63526,-0.99795 3.49835,0.35622 6.8397,1.14444 10.00568,2.51862 3.76911,1.40778 7.6712,2.58494 11.15027,4.56879 2.08497,1.3791 4.09539,2.85896 6.06038,4.39479 1.59325,1.23172 3.54095,1.91969 5.29575,2.91531 1.89625,1.02625 3.8532,1.95951 5.40762,3.46492 1.774,1.43703 3.3643,3.06702 4.46579,5.09851 1.4421,1.9949 3.42765,3.70062 3.81326,6.30671 0.41144,2.4966 0.0171,5.10902 -0.0249,7.66953 -0.20638,2.80885 -0.51714,5.62783 -1.16674,8.41109 -0.93706,2.78504 -1.94482,5.54798 -2.99842,8.30136 -0.58288,1.24166 -1.48607,2.1656 -2.05567,3.37844 -0.5774,1.22948 -0.8142,2.58348 -1.82161,3.62948 -7.49225,11.23375 -6.65794,9.16163 -26.0991,19.7462 -2.49857,1.16463 -5.02494,2.21583 -7.61596,3.09687 -0.68921,0.31263 -2.67519,1.4356 -2.02637,1.03702 6.52343,-4.00742 26.25252,-15.73342 19.59081,-11.98563 -8.02699,4.51587 -15.12443,10.18843 -23.34922,13.94013 -2.44301,0.73051 -4.81569,1.70835 -7.28195,2.33029 -2.33677,0.60079 -4.63751,0.81246 -7.00231,0.83287 -2.19031,0.12578 -4.39036,0.28144 -6.56981,0.73853 -2.116,0.54463 -4.09226,1.4304 -6.12369,2.25897 -0.85156,0.33269 -5.09776,2.69919 -3.03756,1.42917 6.47256,-3.99005 25.92303,-15.9019 19.446,-11.91979 -6.91382,4.25066 -47.86517,29.33416 -2.04302,1.26327 -2.57439,1.45509 -5.0954,3.01757 -6.96896,5.39064 -2.36158,2.74892 -4.14991,5.83604 -5.84071,9.00179 -1.53784,3.06337 -2.59687,6.08527 -2.43724,9.42576 -0.14543,3.51328 -0.30839,7.03208 -0.1942,10.52629 0.17995,3.16626 0.6179,6.27915 2.00379,9.07543 0.23399,0.49315 0.46799,0.98631 0.70197,1.47947 0.18287,0.43163 0.35037,0.87108 0.54861,1.29488 0.189,0.40406 1.00564,0.90874 0.6124,1.18718 -6.68118,4.73066 -13.82913,8.71128 -20.74371,13.06692 0.33207,-0.18705 0.16472,-0.0334 0.22658,-0.62952 -0.56323,-2.2815 -0.52148,-4.58676 -0.33065,-6.98678 0.1011,-2.19423 0.2674,-4.42805 0.77899,-6.60024 0.93585,-2.25955 1.98158,-4.46303 2.81979,-6.75152 1.02702,-1.99294 2.30551,-3.87251 3.61092,-5.70424 1.16106,-1.80192 1.76366,-3.81971 2.42239,-5.79477 5.85441,-8.9728 20.63173,-12.53249 26.80493,-18.55174 3.03578,-1.53547 6.0348,-3.15238 9.29925,-4.05117 3.15571,-0.99748 6.22563,-2.27551 9.29908,-3.5504 3.26912,-1.5104 6.51786,-3.05422 9.61307,-4.94992 7.85892,-4.54804 3.73842,-2.18206 -17.25844,10.65 -3.84693,2.35103 3.53662,-2.24214 4.26053,-2.73238 0.38712,-0.26216 0.78991,-0.49846 1.18487,-0.74768 2.50466,-2.03789 4.60822,-4.44946 7.00038,-6.60985 2.27068,-2.50181 5.07875,-4.46957 6.66334,-7.55201 1.9875,-3.19705 3.99246,-6.29374 5.05237,-9.9032 1.31688,-3.39445 0.98838,-6.86907 1.19952,-10.36371 0.13741,-3.4653 0.23409,-6.92818 0.35103,-10.39234 0.11505,-3.06109 0.24108,-6.13481 -0.0572,-9.15439 -0.43127,-3.21687 -1.41228,-6.23138 -2.25295,-9.32398 -1.11358,-3.48667 -2.33494,-7.00686 -4.68208,-9.80081 -2.20398,-2.51474 -4.73261,-4.48285 -8.12318,-5.3255 -4.36934,-1.11763 -8.91932,-0.68549 -13.50263,-0.41724 -5.5053,0.32243 -11.04582,0.59377 -16.52204,1.79286 -5.34138,1.41395 -10.56045,3.51468 -15.52181,6.12471 34.8405,-21.50076 10.51926,-7.3089 3.33031,-1.01042 0,0 -22.11554,9.78726 -22.11554,9.78726 z"
       inkscape:connector-curvature="0" />
  </g>
  <g
     inkscape:groupmode="layer"
     id="layer4"
     inkscape:label="accent"
     style="display:none">
    <path
       style="display:inline"
       id="path3580"
       d="m 255.15596,131.4061 c 11.07835,-8.84925 24.05149,-15.24756 36.26591,-22.22288 5.14073,-2.15904 10.37793,-4.10839 15.90288,-4.95536 5.51528,-0.59536 11.07522,-0.58085 16.6161,-0.60296 4.88148,-0.25622 9.48736,-0.13175 14.06617,1.6638 3.77691,1.22316 6.57878,3.75274 9.04689,6.74179 2.50203,3.22462 4.07753,6.99215 5.45443,10.7984 1.01718,3.2357 2.1413,6.41465 2.84786,9.7354 0.47223,3.15923 0.54693,6.36228 0.60856,9.55118 0.006,3.49635 -0.0566,6.99237 -0.0613,10.48888 -0.0232,3.64389 0.25424,7.27857 -0.48459,10.86448 -1.00341,3.62203 -2.4864,7.05086 -4.41732,10.26612 -1.58431,2.94997 -3.70463,5.42622 -6.11211,7.72004 -2.24383,2.10553 -4.35463,4.35111 -6.60431,6.44909 -8.7355,6.63484 -18.76466,11.37698 -28.27078,16.80935 -3.10843,1.6432 -6.3248,3.02608 -9.61593,4.26093 -3.01974,1.23085 -6.21117,1.9262 -9.28953,2.94734 -3.07866,0.92323 -6.10806,2.30132 -8.85021,3.96673 36.49127,-19.46351 19.1792,-12.96851 13.61432,-6.6292 -1.12987,1.57564 -1.63522,3.52987 -2.36381,5.32339 -1.0266,1.93718 -2.22489,3.78606 -3.39112,5.6456 -1.0088,2.0363 -1.86466,4.16203 -2.65108,6.29658 -0.77524,1.86349 -0.80858,3.90501 -0.89722,5.89161 0.0297,2.13469 -0.29546,4.31473 0.28508,6.39584 2.0631,8.75692 2.35,1.95077 -20.92351,11.35965 -0.0573,0.0231 -1.81005,-3.90943 -1.92815,-4.15959 -1.57963,-3.10548 -2.31606,-6.47266 -2.73497,-9.90243 -0.30508,-3.58604 -0.27373,-7.19296 -0.28587,-10.78958 -0.33129,-3.55791 0.43421,-6.86976 1.67586,-10.17103 1.42591,-3.25777 3.17031,-6.40052 5.23758,-9.29476 1.63215,-2.50161 3.92876,-4.17635 6.348,-5.8172 56.82949,-32.73045 1.30687,-0.77176 1.97011,-1.14036 11.96825,-6.65141 14.93586,-10.48293 24.40213,-13.09289 1.84795,-1.15028 4.08737,-1.46691 6.22183,-1.64196 2.23224,-0.20531 4.47814,-0.14213 6.71686,-0.14686 2.34399,0.2883 4.42191,-0.33055 6.65108,-0.92139 2.22024,-0.85491 4.93221,-1.0026 6.94462,-2.30159 -0.73106,0.42616 2.37477,-1.20412 1.79752,-0.87204 -6.41082,3.68803 -25.61704,14.79586 -19.26325,11.01042 13.4581,-8.01803 14.20811,-9.97413 23.22531,-12.73705 2.4961,-0.58276 5.06661,-1.52557 7.2092,-2.95649 -29.71588,17.35419 -19.96006,14.25131 -14.25532,5.52275 1.47706,-2.0891 2.36685,-4.46944 3.70855,-6.63814 1.18705,-2.48524 2.03281,-5.13634 2.83729,-7.76878 0.79892,-2.53519 0.94952,-5.19154 1.07262,-7.82679 0.0405,-2.42757 0.21634,-4.86909 -0.0344,-7.28883 -0.40996,-2.23941 -2.22402,-3.77923 -3.48869,-5.58619 -1.02893,-2.0316 -2.73109,-3.36105 -4.42113,-4.78956 -1.53806,-1.45139 -3.39908,-2.40575 -5.2521,-3.39315 -2.02433,-1.07311 -4.03235,-2.00843 -5.68948,-3.61125 -1.99947,-1.52384 -3.96093,-3.06956 -5.99964,-4.54019 -3.49341,-1.93516 -7.28979,-3.19043 -10.93437,-4.7971 -3.1199,-1.46484 -6.42327,-2.09839 -9.82512,-2.39368 -3.20988,-0.48347 -5.9823,0.13704 -8.9333,1.34583 -6.94405,5.2467 -1.29334,0.90259 17.68867,-9.97819 0.34818,-0.19958 -0.69619,0.40185 -1.0233,0.63436 -0.92643,0.65853 -1.6726,1.55044 -2.42978,2.38503 -1.7783,2.4612 -3.76385,4.70176 -5.89316,6.86427 -1.50647,1.96396 -3.31367,3.61982 -5.18304,5.22448 -5.54144,8.42593 -9.55101,7.4178 -23.06984,15.00877 -0.78519,0.44089 -1.48829,0.20101 -2.29391,0.0847 -2.33944,-0.50457 -3.60497,-2.29952 -4.49043,-4.37141 -0.85293,-2.37666 -0.68965,-4.67775 -0.0199,-7.05884 1.23503,-2.98492 3.03302,-5.68641 4.67459,-8.45472 1.64782,-2.66251 3.4913,-5.21729 5.46426,-7.64874 6.69129,-8.08011 17.02917,-12.39258 26.44164,-16.599524 2.86506,-0.33387 5.6142,-1.12197 8.45009,-1.60101 2.71188,-0.7765 5.31788,-1.75505 7.93886,-2.7518 2.17411,-0.98301 4.681,-0.57522 6.84016,-1.45504 1.92366,-1.44074 4.23619,-2.19106 6.58704,-2.60702 2.1651,-0.28405 4.34745,-0.22418 6.52483,-0.23891 2.5575,-0.0412 5.26907,0.3177 7.53076,1.56158 2.2541,0.57564 3.49761,2.50245 5.3419,3.70059 1.93298,1.69206 3.53984,3.7249 5.05521,5.791484 1.60258,1.54639 2.67177,3.50413 4.16224,5.14835 1.67559,1.64255 2.8586,3.53241 3.53039,5.76372 0.67667,2.02775 1.23226,4.07849 2.06791,6.04591 0.94805,2.02254 1.26598,4.27447 1.4781,6.47895 0.14871,2.48296 0.14007,4.9723 0.10622,7.45846 0.0193,2.4318 -0.001,4.8639 0.0235,7.29561 -0.002,2.17923 -1.2e-4,4.35815 -0.0166,6.53738 -0.14692,3.00903 -1.09229,5.89764 -2.4312,8.57515 -1.43357,2.3472 -2.87572,4.70406 -4.52967,6.90382 -1.68564,1.71022 -2.89891,3.79955 -4.60095,5.48545 -1.68384,1.19658 -3.35653,2.37023 -4.84345,3.80816 -1.43574,1.59384 -3.0143,3.02754 -4.69044,4.36241 -2.10629,1.58046 -4.09504,3.30142 -6.02104,5.09502 -6.77309,6.29086 -1.72163,1.7206 -21.91278,13.06417 -0.17403,0.0978 -2.13098,0.4235 -2.37283,0.49922 -0.14628,0.0458 -1.79034,0.79534 -1.96691,0.87532 -11.45507,6.70585 27.6022,-15.86154 14.45256,-8.07721 -1.48457,1.30559 -3.07911,2.47049 -4.57283,3.76728 -2.28505,1.83561 -3.94876,4.26194 -6.11263,6.21111 -1.79113,1.46016 -3.25519,3.10049 -4.42883,5.08509 -1.16032,1.66287 -2.0027,3.49896 -3.14675,5.17406 -14.48135,9.56155 -23.74751,17.06095 -21.84569,3.49208 1.12648,-3.56992 3.7233,-6.48491 6.38567,-9.03783 9.79353,-6.30926 16.51803,-13.06804 27.19426,-13.29064 2.22842,-0.0131 4.45612,0.0485 6.68439,0.0574 2.39413,0.0441 4.78838,0.0184 7.18271,0.0255 1.83585,0.17227 3.38022,-0.2812 4.8987,-1.29318 0,0 -18.35913,14.54597 -18.35913,14.54597 l 0,0 c -1.81147,0.48599 -3.61065,0.63062 -5.48712,0.50883 -2.40014,-5.2e-4 -4.80001,-0.0388 -7.20013,-0.0347 -2.19263,-0.0315 -4.39168,-0.0625 -6.58008,0.095 -8.49475,1.03967 -21.43101,12.06034 13.32763,-9.28512 -2.8861,1.8249 -5.23338,4.7538 -7.0228,7.61342 -0.50811,1.31975 -0.47976,2.20258 -0.40474,3.59465 0.48256,8.95387 9.09221,-3.16326 -20.405,12.26889 1.39442,-1.54096 2.49989,-3.17092 3.31317,-5.08468 1.4933,-1.84125 2.15606,-4.27203 4.3021,-5.60507 0.7407,-0.68634 1.63589,-1.19482 2.36353,-1.89499 1.3351,-1.28472 2.03125,-3.2592 3.68575,-4.28021 1.40744,-1.37593 2.84256,-2.72475 4.49952,-3.80105 0.76252,-0.92168 1.56158,-1.3878 2.59468,-1.9926 5.96085,-3.48957 15.09824,-9.83212 23.10865,-13.25117 1.02339,-0.35597 2.11947,-0.57292 3.10896,-1.01727 0.35715,-0.16038 1.37318,-0.75234 1.03589,-0.55355 -21.88175,12.89619 -25.06777,14.85377 -17.95932,10.50518 1.92496,-1.8227 3.82669,-3.68872 5.94666,-5.28675 1.65786,-1.28531 3.33517,-2.47178 4.73378,-4.03445 1.44643,-1.60201 2.92471,-3.07192 4.7439,-4.2312 2.28552,-1.08773 3.14808,-3.16105 4.82068,-4.93887 1.85844,-1.97274 3.25371,-4.26384 4.70427,-6.55112 1.55697,-2.25872 2.51697,-4.72648 2.95175,-7.44546 -0.0164,-2.17549 -0.0142,-4.35065 -0.0117,-6.52615 0.0308,-2.44401 0.0219,-4.88848 0.0508,-7.33258 -0.0289,-2.4168 0.005,-4.83493 -0.10086,-7.25027 -0.12038,-1.97037 -0.27381,-3.99363 -1.11021,-5.81047 -0.89399,-2.06934 -1.45517,-4.21349 -2.23912,-6.32795 -0.45236,-1.94368 -1.55823,-3.47078 -2.98907,-4.86173 -1.45385,-1.7565 -2.70868,-3.66069 -4.26309,-5.33638 -1.32913,-1.90161 -2.83033,-3.72497 -4.6734,-5.14912 -1.62288,-1.29047 -3.02282,-2.66356 -5.07911,-3.28133 -2.27098,-0.69044 -4.58022,-0.90265 -6.94947,-0.7392 -2.08149,0.0317 -4.18761,0.10754 -6.20012,0.69228 -2.24977,0.76638 -4.31115,1.90861 -6.57416,2.60277 -2.27702,0.29591 -4.52382,0.72257 -6.64238,1.6521 -2.62507,1.03227 -5.39604,1.70596 -8.12657,2.39391 -2.73333,0.64051 -5.60733,0.88853 -8.16164,2.10475 -7.60386,3.86369 0.66227,-0.31269 17.71934,-10.32071 2.24155,-1.31519 -2.49461,1.29481 -3.33632,2.08591 -0.36882,0.34664 -0.72611,0.70535 -1.08917,1.05803 -1.84291,2.47343 -3.86298,4.79707 -5.57546,7.38229 -1.60148,2.6788 -3.2449,5.32886 -4.79647,8.03269 -0.86319,1.81001 -1.26174,3.51902 -0.68265,5.49487 0.49677,1.37317 1.28041,2.2184 2.86136,1.87054 6.87469,-2.99251 20.05475,-11.95085 -17.37287,10.27724 -0.12217,0.0726 3.43999,-1.72673 2.3894,-2.10268 1.12957,-2.48606 3.71313,-3.19918 5.17672,-5.49878 1.88327,-2.34538 4.47751,-4.05916 5.83002,-6.82615 6.8408,-8.01015 14.26358,-13.04606 25.71164,-16.45019 3.15511,-0.89232 6.33991,-1.02451 9.5858,-0.52127 3.5074,0.53153 6.87423,1.48859 10.08793,3.0247 3.81735,1.59985 7.75884,2.97499 11.30816,5.13826 2.13421,1.48722 4.19776,3.0718 6.21804,4.71026 1.63756,1.3149 3.60871,2.102 5.39875,3.1881 1.93247,1.12387 3.92207,2.15748 5.53114,3.74499 1.82581,1.52984 3.4754,3.2441 4.65188,5.33677 1.51529,2.07292 3.56248,3.88283 4.04556,6.51624 0.50477,2.52487 0.20915,5.1258 0.26341,7.69219 -0.10055,2.80733 -0.30497,5.61962 -0.84916,8.3792 -0.83122,2.74706 -1.73388,5.46843 -2.68269,8.17792 -0.53549,1.21651 -1.40283,2.09835 -1.92614,3.28661 -0.53048,1.20456 -0.71609,2.55098 -1.68294,3.55008 -7.06073,10.89568 -6.30534,8.85864 -25.32456,18.50812 -2.4517,1.04384 -4.93542,1.97252 -7.49012,2.72728 -0.6766,0.27929 -2.61791,1.30686 -1.98488,0.93935 6.36472,-3.69507 25.62862,-14.4752 19.11603,-11.04745 -7.8473,4.13024 -14.72273,9.46705 -22.79631,12.82089 -2.41253,0.61114 -4.74551,1.47387 -7.18533,1.97494 -2.31129,0.48631 -4.60123,0.58407 -6.96232,0.48679 -2.18287,0.0171 -4.37434,0.0637 -6.53391,0.41369 -2.0929,0.44096 -4.03342,1.23108 -6.03119,1.96107 -0.838,0.29133 -4.98998,2.45376 -2.98007,1.28237 6.31456,-3.68018 25.29319,-14.66061 18.97387,-10.98861 -6.74548,3.91963 -46.70327,27.04211 -1.99301,1.16547 -2.5165,1.33143 -4.97566,2.77325 -6.7577,5.06042 -2.25534,2.63989 -3.92542,5.64758 -5.49514,8.739 -1.42079,2.99634 -2.36493,5.97492 -2.07995,9.33377 -0.0132,3.51698 -0.0437,7.03863 0.20168,10.54942 0.29873,3.18508 0.85313,6.32948 2.3424,9.20348 0.25224,0.50634 0.50448,1.01269 0.75671,1.51904 0.19886,0.44208 0.38267,0.89124 0.59659,1.32623 0.20396,0.41473 1.03855,0.96165 0.65626,1.22137 -6.49509,4.41271 -13.48456,8.0498 -20.22685,12.0747 0.32463,-0.17109 0.16326,-0.0253 0.20264,-0.62019 -0.64829,-2.31666 -0.69323,-4.62702 -0.59284,-7.02502 0.0185,-2.19603 0.10064,-4.42853 0.52995,-6.58202 0.84977,-2.21999 1.81138,-4.37826 2.56254,-6.63214 0.95084,-1.94801 2.1571,-3.76978 3.39204,-5.54221 1.0919,-1.74972 1.61791,-3.74379 2.20159,-5.6922 5.50991,-8.70924 20.1351,-11.54418 26.07441,-17.27479 2.9743,-1.38909 5.90883,-2.8617 9.13545,-3.60074 3.11431,-0.84345 6.13238,-1.9726 9.1541,-3.09842 3.2083,-1.35232 6.39498,-2.73917 9.4151,-4.48666 7.67824,-4.17087 3.65177,-2.0027 -16.83674,9.8238 -3.7538,2.1668 3.44796,-2.07302 4.15254,-2.52874 0.37679,-0.2437 0.7702,-0.46068 1.1553,-0.69101 2.42496,-1.91952 4.43527,-4.23385 6.74327,-6.28186 2.17383,-2.39653 4.90446,-4.2306 6.37123,-7.24374 1.86487,-3.10804 3.75095,-6.11454 4.67389,-9.68247 1.18766,-3.33945 0.72898,-6.84126 0.80851,-10.33627 0.007,-3.46926 -0.0266,-6.93812 -0.04,-10.40725 -1.5e-4,-3.0649 0.0102,-6.14192 -0.40121,-9.18576 -0.55164,-3.24837 -1.64473,-6.32112 -2.6006,-9.46522 -1.24324,-3.55298 -2.59539,-7.14496 -5.04463,-10.06449 -2.29576,-2.63233 -4.89523,-4.73248 -8.31326,-5.74659 -4.40593,-1.33869 -8.93402,-1.13177 -13.50156,-1.09091 -5.48635,0.0493 -11.0098,0.0456 -16.43416,0.97573 -5.28161,1.15238 -10.41525,2.99978 -15.27236,5.37089 33.98917,-19.83287 10.23151,-6.80787 3.2882,-0.84774 0,0 -21.72025,8.71651 -21.72025,8.71651 z"
       inkscape:connector-curvature="0" />
  </g>
</svg>
