<?xml version="1.0" encoding="UTF-8" standalone="no"?>
<!-- Created with Inkscape (http://www.inkscape.org/) -->

<svg
   xmlns:dc="http://purl.org/dc/elements/1.1/"
   xmlns:cc="http://creativecommons.org/ns#"
   xmlns:rdf="http://www.w3.org/1999/02/22-rdf-syntax-ns#"
   xmlns:svg="http://www.w3.org/2000/svg"
   xmlns="http://www.w3.org/2000/svg"
   xmlns:sodipodi="http://sodipodi.sourceforge.net/DTD/sodipodi-0.dtd"
   xmlns:inkscape="http://www.inkscape.org/namespaces/inkscape"
   width="1024"
   height="1024"
   viewBox="0 0 1024 1024"
   id="svg2"
   version="1.1"
   inkscape:version="0.91 r13725"
   sodipodi:docname="hinhanh.svg"
   enable-background="new"
   inkscape:export-filename="/Users/iain/Pictures/Artwork/hinhanh.png"
   inkscape:export-xdpi="90"
   inkscape:export-ydpi="90">
  <defs
     id="defs4">
    <filter
       style="color-interpolation-filters:sRGB;"
       inkscape:label="Feather"
       id="filter3435">
      <feGaussianBlur
         stdDeviation="8.78572"
         result="blur"
         id="feGaussianBlur3437" />
      <feComposite
         in="SourceGraphic"
         in2="blur"
         operator="atop"
         result="composite1"
         id="feComposite3439" />
      <feComposite
         in2="composite1"
         operator="in"
         result="composite2"
         id="feComposite3441" />
      <feComposite
         in2="composite2"
         operator="in"
         result="fbSourceGraphic"
         id="feComposite3443" />
      <feColorMatrix
         result="fbSourceGraphicAlpha"
         in="fbSourceGraphic"
         values="0 0 0 -1 0 0 0 0 -1 0 0 0 0 -1 0 0 0 0 1 0"
         id="feColorMatrix3567" />
      <feGaussianBlur
         id="feGaussianBlur3569"
         stdDeviation="21.55"
         result="blur"
         in="fbSourceGraphic" />
      <feComposite
         id="feComposite3571"
         in2="blur"
         in="fbSourceGraphic"
         operator="atop"
         result="composite1" />
      <feComposite
         id="feComposite3573"
         in2="composite1"
         operator="in"
         result="composite2" />
      <feComposite
         id="feComposite3575"
         in2="composite2"
         operator="in"
         result="fbSourceGraphic" />
      <feColorMatrix
         result="fbSourceGraphicAlpha"
         in="fbSourceGraphic"
         values="0 0 0 -1 0 0 0 0 -1 0 0 0 0 -1 0 0 0 0 1 0"
         id="feColorMatrix3577" />
      <feGaussianBlur
         id="feGaussianBlur3579"
         stdDeviation="21.55"
         result="blur"
         in="fbSourceGraphic" />
      <feComposite
         id="feComposite3581"
         in2="blur"
         in="fbSourceGraphic"
         operator="atop"
         result="composite1" />
      <feComposite
         id="feComposite3583"
         in2="composite1"
         operator="in"
         result="composite2" />
      <feComposite
         id="feComposite3585"
         in2="composite2"
         operator="in"
         result="composite3" />
    </filter>
    <filter
       inkscape:collect="always"
       style="color-interpolation-filters:sRGB"
       id="filter4583">
      <feBlend
         inkscape:collect="always"
         mode="darken"
         in2="BackgroundImage"
         id="feBlend4585" />
    </filter>
  </defs>
  <sodipodi:namedview
     id="base"
     pagecolor="#ffffff"
     bordercolor="#666666"
     borderopacity="1.0"
     inkscape:pageopacity="0.0"
     inkscape:pageshadow="2"
     inkscape:zoom="0.35"
     inkscape:cx="194.94581"
     inkscape:cy="520"
     inkscape:document-units="px"
     inkscape:current-layer="layer2"
     showgrid="false"
     units="px"
     inkscape:window-width="1440"
     inkscape:window-height="851"
     inkscape:window-x="0"
     inkscape:window-y="1"
     inkscape:window-maximized="1" />
  <metadata
     id="metadata7">
    <rdf:RDF>
      <cc:Work
         rdf:about="">
        <dc:format>image/svg+xml</dc:format>
        <dc:type
           rdf:resource="http://purl.org/dc/dcmitype/StillImage" />
        <dc:title />
      </cc:Work>
    </rdf:RDF>
  </metadata>
  <g
     inkscape:groupmode="layer"
     id="layer2"
     inkscape:label="BG"
     style="display:inline;filter:url(#filter4583)">
    <path
       sodipodi:type="star"
       id="path3419"
       sodipodi:sides="4"
       sodipodi:cx="502.85715"
       sodipodi:cy="498.28571"
       sodipodi:r1="562.85712"
       sodipodi:r2="143.68333"
       sodipodi:arg1="-1.0888263e-08"
       sodipodi:arg2="0.7853981"
       inkscape:flatsided="true"
       inkscape:rounded="0.76"
       inkscape:randomized="0"
       d="m 1065.7143,498.2857 c 0,604.9601 42.103,562.8571 -562.85715,562.8571 -604.96012,0 -562.857113,42.103 -562.857119,-562.85709 -7e-6,-604.96013 -42.103021,-562.857115 562.857109,-562.857121 604.96016,-7e-6 562.85716,-42.103019 562.85716,562.857111 z"
       inkscape:transform-center-x="9.2912742"
       inkscape:transform-center-y="12.909242"
       style="fill:#c6c6c6;fill-opacity:1;filter:url(#filter3435)"
       transform="matrix(0.66189821,-0.02327888,-0.10072585,0.73751963,245.04533,142.71306)" />
  </g>
  <g
     inkscape:label="Layer 1"
     inkscape:groupmode="layer"
     id="layer1"
     transform="translate(0,-28.362161)">
    <path
       style="font-style:normal;font-variant:normal;font-weight:normal;font-stretch:normal;font-size:149.78944397px;line-height:125%;font-family:Trattatello;-inkscape-font-specification:'Trattatello, Normal';text-align:start;letter-spacing:0px;word-spacing:0px;writing-mode:lr-tb;text-anchor:start;fill:#000000;fill-opacity:1;stroke:none;stroke-width:1px;stroke-linecap:butt;stroke-linejoin:miter;stroke-opacity:1"
       d="m 823.67527,167.37897 c -4.53151,1.60624 -8.63704,3.39502 -12.31564,5.3672 -3.26988,1.75305 -6.53551,3.60681 -9.79653,5.56091 -3.05223,1.94507 -5.37788,3.7585 -6.97738,5.43924 l -2.50688,0.10759 c -0.83516,0.0368 -1.45167,0.26313 -1.85155,0.68331 -0.81745,0.43827 -1.63966,0.77608 -2.46599,1.01328 l -1.88017,0.0802 c -2.26132,0.90364 -3.87375,2.28319 -4.83801,4.13785 -0.76432,1.64454 -1.41917,3.3847 -1.96582,5.22128 -0.33786,1.82751 -0.78569,3.55857 -1.34121,5.1941 -0.34674,1.62647 -1.13147,2.76976 -2.35769,3.42716 -0.80861,0.63933 -1.99065,2.30171 -3.54585,4.98769 -1.55522,2.68595 -3.10254,5.5732 -4.64005,8.66127 -1.53748,3.08808 -2.97039,6.17116 -4.29909,9.25018 -1.12875,2.86892 -1.76592,5.01189 -1.91271,6.42827 l -0.56753,8.48322 c -0.71116,2.85087 -1.79949,6.62508 -3.26612,11.32152 -1.25781,4.68743 -1.75929,9.94739 -1.50236,15.77782 l 0.81058,18.39626 c 0.063,1.40731 -0.16244,3.43037 -0.67366,6.07113 -0.51124,2.64077 -1.1274,5.28631 -1.84743,7.93613 -0.72001,2.64981 -1.34292,5.09388 -1.87185,7.33253 -0.53782,2.03761 -0.79413,3.35857 -0.76754,3.96172 l 0.26531,6.03121 c 0.0172,0.40212 -0.0681,0.80851 -0.25925,1.21965 -0.19106,0.41114 -0.27902,0.81763 -0.26131,1.21973 -1.02628,0.4473 -1.63052,0.97733 -1.81273,1.58952 l 0.0803,1.8086 0.37363,8.44511 c -0.14678,1.41639 -0.39976,2.83717 -0.75533,4.26259 -0.36445,1.22437 -0.72429,2.54895 -1.07989,3.97438 -0.14678,1.41639 -0.49779,2.94236 -1.05331,4.57788 0.12456,2.81467 -0.31932,6.96416 -1.3329,12.44673 -1.0136,5.48259 -2.22834,11.17461 -3.6418,17.07736 -1.21351,5.69266 -2.34364,10.87837 -3.39266,15.55677 -0.55322,2.46723 -0.94527,4.36027 -1.19691,5.75005 -0.38824,-0.67427 -1.00774,-1.33904 -1.87387,-1.99262 -1.52359,-1.34407 -2.91158,-1.98755 -4.16435,-1.93331 -0.83517,0.0368 -2.77455,1.12735 -5.81792,3.27347 -2.84342,1.93602 -5.99133,4.08543 -9.44343,6.45067 -1.41729,1.06854 -2.73473,2.03249 -3.95207,2.89094 -1.21736,0.85843 -2.33111,1.71348 -3.33966,2.5629 l -3.65209,2.57369 c -1.67035,0.0727 -2.83165,-0.1794 -3.48462,-0.75542 -0.44417,-0.58508 -0.6831,-1.27989 -0.71855,-2.08408 -0.0447,-1.00522 0.0151,-2.01398 0.17966,-3.02827 0.15564,-1.21533 0.21501,-2.22594 0.17957,-3.03012 -0.009,-0.20106 0.33,-2.02822 1.01459,-5.48222 0.89337,-3.46304 1.85515,-7.73429 2.88644,-12.81478 1.23125,-5.29056 2.44592,-10.98443 3.64173,-17.0792 1.39573,-6.30486 2.59073,-12.39959 3.5866,-18.28427 1.19581,-6.09477 1.99565,-11.66864 2.40057,-16.72198 0.40491,-5.05336 0.44103,-8.98132 0.1082,-11.78696 -0.9858,-3.38168 -2.0581,-6.35671 -3.21725,-8.92516 -1.14143,-2.16634 -2.38215,-4.22876 -3.72352,-6.18499 -1.13257,-1.96529 -2.5349,-2.91176 -4.20526,-2.83943 -1.25276,0.0548 -3.18332,1.34683 -5.79136,3.87696 -2.61691,2.32909 -5.52037,5.27488 -8.71052,8.8374 -3.19012,3.56248 -6.47114,7.43008 -9.84349,11.60477 -3.38122,3.97362 -6.66546,7.74326 -9.8556,11.30576 -2.98136,3.55346 -5.67237,6.5899 -8.07162,9.11098 -2.19931,2.31102 -3.71707,3.48553 -4.55224,3.52171 l -3.71125,-5.88231 -1.15141,-4.78618 c -0.0366,-0.80413 0.10649,-2.32099 0.42662,-4.55061 0.52895,-2.23866 0.95034,-4.57207 1.26164,-7.00274 0.52008,-2.43971 0.83032,-4.87098 0.93281,-7.29263 0.10249,-2.42162 -0.19098,-4.32289 -0.87988,-5.70309 -1.11488,-1.56319 -2.32909,-3.02143 -3.64388,-4.37453 -1.31479,-1.35308 -3.12108,-1.98009 -5.41784,-1.88064 -2.29686,0.0971 -4.66984,0.80799 -7.12225,2.12278 -2.45242,1.31478 -4.39178,2.40598 -5.81794,3.27346 -6.70424,4.52039 -12.44295,9.60281 -17.21488,15.24812 -4.57199,5.43524 -9.31233,11.78359 -14.22218,19.04634 0.0529,1.20631 -0.28571,3.03349 -1.0146,5.48223 -0.52894,2.23868 -0.0434,3.7298 1.4536,4.47072 l 2.50477,-0.1075 c 0.83517,-0.0368 1.8665,-0.38313 3.09268,-1.04055 l 4.30529,-1.9993 c 1.63492,-0.87653 3.16823,-1.64817 4.60324,-2.31462 1.64378,-0.67547 3.0933,-1.04079 4.34609,-1.09504 1.67039,-0.0717 2.64021,0.59136 2.91103,1.98967 0.47072,1.18821 0.73277,2.38553 0.78593,3.59184 l 1.45755,11.71979 0.18522,4.22261 c 0.0366,0.80416 -0.32778,2.02898 -1.09208,3.67355 l -2.58033,5.54937 c -0.75546,1.84562 -1.50704,3.7927 -2.25362,5.83939 -0.75546,1.84559 -1.10648,3.37158 -1.05334,4.57786 l 1.79232,5.05785 0.25311,5.73036 0.22536,5.12692 c 0.0366,0.80415 -0.62273,2.44453 -1.978,4.92042 -1.35528,2.47587 -2.79914,5.35763 -4.32776,8.64676 -1.31982,3.28007 -2.52048,6.85835 -3.60495,10.73254 -1.09332,3.67314 -1.35613,7.20932 -0.78794,10.60908 0.30625,2.20249 1.32019,3.87133 3.04372,5.0053 1.93233,1.1249 3.95648,1.94226 6.07103,2.45499 2.32332,0.50371 4.63372,0.70597 6.93049,0.60651 2.30561,0.10161 4.08546,0.12629 5.33824,0.072 1.25273,-0.0558 2.49654,-0.31058 3.73159,-0.76694 1.45273,-0.26434 1.62113,-1.17693 0.50628,-2.74015 1.43118,-5.50065 3.05324,-11.4123 4.86657,-17.73524 1.80447,-6.52399 3.71268,-13.05266 5.72595,-19.58568 0.73775,-2.2477 1.26253,-4.58842 1.57381,-7.0191 0.52008,-2.43971 0.93598,-4.87468 1.24727,-7.30536 -0.48846,-1.59032 -0.65029,-2.89108 -0.48581,-3.90538 0.36444,-1.22437 1.04231,-2.46386 2.03314,-3.71537 1.51978,-3.49018 2.82063,-7.17186 3.9051,-11.04605 1.29325,-3.88324 2.80866,-7.4744 4.54607,-10.77252 1.72857,-3.49922 4.01021,-6.31593 6.84476,-8.45301 2.8257,-2.33812 6.74512,-3.61705 11.75624,-3.83404 3.34076,-0.14438 5.55334,2.5795 6.63656,8.17271 l 0.14507,3.31834 c -0.24928,3.83801 -0.80165,7.88952 -1.6596,12.15675 -0.85794,4.26726 -2.01998,8.74905 -3.4866,13.44552 -1.43118,5.50066 -3.05526,11.41428 -4.86861,17.73721 -1.60452,6.3139 -2.9119,12.21086 -3.92547,17.69341 l 1.41671,10.81555 c 0.0529,1.20629 0.43302,2.70114 1.13915,4.48344 0.90604,1.57225 2.02013,3.13577 3.34378,4.68992 1.31479,1.35309 2.72594,2.50096 4.23182,3.44291 1.71467,0.93293 3.30301,1.36771 4.76459,1.30441 4.1759,-0.18142 7.58583,-1.13474 10.2293,-2.86067 2.64347,-1.72594 5.05501,-3.94579 7.23661,-6.65888 2.17272,-2.91417 4.33655,-6.02834 6.49157,-9.3446 2.15502,-3.31626 4.82835,-6.75547 8.0185,-10.31798 1.25273,-0.0558 2.36996,-0.80764 3.35193,-2.26019 1.19077,-1.46157 1.7509,-2.99673 1.68004,-4.60512 0.83515,-0.0368 2.15597,-0.90031 3.96427,-2.59007 1.80829,-1.68975 3.6089,-3.57921 5.3995,-5.67106 1.79056,-2.09188 3.27304,-4.0701 4.44609,-5.93381 0.54315,-0.73609 0.94469,-1.32471 1.27161,-1.83361 l 1.22142,27.71045 0.23875,5.42774 c 0.30626,2.20248 0.92507,4.39218 1.8577,6.56753 0.93265,2.17537 2.16654,4.03446 3.699,5.57956 1.74123,1.53606 4.17617,2.2373 7.30813,2.10169 1.6704,-0.0717 3.61856,-0.96212 5.84446,-2.66999 2.44353,-1.51583 4.44437,-3.6177 5.99958,-6.30366 1.08447,-3.87417 1.94611,-8.04014 2.58636,-12.49939 0.6403,-4.45925 1.27516,-9.01882 1.90657,-13.67913 0.62259,-4.86136 1.2507,-9.6224 1.88212,-14.28269 0.62256,-4.86137 1.46652,-9.43011 2.53328,-13.7064 3.23947,-7.19041 6.91527,-13.99744 11.02538,-20.41983 4.10125,-6.62344 9.79035,-12.81256 17.06783,-18.56638 2.85228,-1.73497 4.56826,-3.11812 5.15036,-4.15048 0.78203,-1.24245 1.80118,-1.89064 3.05396,-1.94489 2.088,-0.0896 3.88882,0.43685 5.40355,1.57986 1.72353,1.13398 3.14345,2.48137 4.2583,4.04457 1.106,1.36213 1.90198,2.8387 2.39044,4.42902 0.48848,1.59031 0.75052,2.78764 0.78597,3.59186 l 0.51852,11.76155 c 0.18689,4.22201 -0.47741,8.17752 -1.98831,11.86874 -1.51977,3.49017 -3.62174,8.01413 -6.30571,13.56906 -1.32869,3.07901 -2.44688,6.1492 -3.35798,9.21016 -0.71114,2.85085 -3.08949,5.87452 -7.13255,9.07106 -1.40842,1.2696 -3.41264,3.2698 -6.01185,6.00098 -2.59918,2.73116 -5.41134,5.37029 -8.43698,7.91852 -0.59094,0.83132 -1.57606,2.18331 -2.95789,4.05606 -1.39072,1.67166 -2.77303,3.54464 -4.14603,5.61841 -1.17305,1.86368 -2.34083,3.82719 -3.50502,5.89194 -0.95537,2.0557 -1.40314,3.78862 -1.34113,5.19597 0.0966,2.21158 0.79531,3.79147 2.0924,4.74246 1.30593,1.15205 2.80296,1.89351 4.49106,2.22329 1.69694,0.53082 3.37999,0.76057 5.05038,0.68825 1.67922,0.12872 2.83166,0.17905 3.45805,0.15192 l 11.27449,-0.48857 3.44588,-0.14864 c 2.71443,-0.11599 4.97182,-1.12179 6.77124,-3.0126 2.00826,-1.89986 3.58543,-4.08311 4.73188,-6.54994 1.34644,-2.67693 2.59333,-5.24833 3.73981,-7.71517 1.13762,-2.6679 2.40547,-4.73853 3.80502,-6.20918 2.79029,-3.1423 5.03656,-6.76459 6.73855,-10.86695 1.702,-4.10234 2.90481,-7.67886 3.6071,-10.73076 1.19962,-1.26054 2.07242,-2.80848 2.61909,-4.64505 0.75544,-1.8456 1.83729,-3.40456 3.24569,-4.67414 1.19076,-1.46161 2.23742,-3.82241 3.13967,-7.08443 -0.12456,-2.81465 0.006,-4.63267 0.38786,-5.45495 0.58211,-1.03238 0.81531,-2.85586 0.70015,-5.46951 l -0.25312,-5.73036 c 0.36446,-1.22438 0.73315,-2.34755 1.10642,-3.37088 0.37331,-1.02333 0.64728,-1.94151 0.82066,-2.75474 0.37331,-1.02333 0.54715,-1.83624 0.52058,-2.43938 -0.12456,-2.81467 -0.47979,-6.12381 -1.06571,-9.92569 -0.37711,-3.81089 -0.59197,-6.32002 -0.64513,-7.52632 l 0.48787,-10.29369 c -0.0284,-0.6031 -0.2237,-2.70952 -0.59201,-6.31936 -0.37713,-3.81091 -1.18095,-7.80568 -2.41096,-11.98252 -1.02122,-4.18588 -2.6526,-7.94072 -4.89115,-11.26816 -2.23859,-3.32742 -5.34162,-4.90646 -9.30876,-4.73466 l -5.32389,0.23104 c -1.67039,0.0717 -3.72755,0.866 -6.17109,2.38185 -2.2436,1.30574 -4.5726,3.01939 -6.98955,5.13837 -2.42586,1.91794 -4.74273,3.93092 -6.95091,6.04087 -2.20818,2.10993 -3.91191,3.79614 -5.11153,5.05669 -4.26071,3.00454 -8.10084,6.09047 -11.5175,9.25991 -3.41664,3.16945 -6.37639,4.80893 -8.88193,4.91744 -1.25273,0.0558 -2.12458,-0.71467 -2.61306,-2.30496 -0.24422,-0.79517 -0.38296,-1.59342 -0.41839,-2.39761 -0.0885,-2.0105 0.18298,-5.34716 0.81442,-10.00747 0.63141,-4.66027 1.36308,-9.42496 2.19445,-14.29534 0.83137,-4.87039 1.57851,-9.23405 2.24539,-13.09015 0.87566,-3.86514 1.40593,-6.10428 1.58817,-6.71646 l 2.85989,-13.41828 c -0.0366,-0.80414 0.11199,-2.21942 0.44099,-4.24798 0.5378,-2.03763 1.07144,-4.17695 1.60037,-6.41561 0.73775,-2.2477 1.26936,-4.38511 1.59836,-6.41367 0.53779,-2.03761 0.79076,-3.45839 0.75534,-4.26258 1.48433,-4.29438 3.39828,-8.30471 5.74437,-12.0321 2.34608,-3.72737 5.65894,-6.89291 9.93734,-9.49538 1.59952,-1.68071 3.22964,-2.65746 4.89115,-2.93083 1.86145,-0.48347 3.94172,-0.77464 6.23849,-0.8741 1.6704,-0.0717 3.33574,-0.24527 4.99725,-0.51873 1.66151,-0.27339 3.19142,-1.1467 4.59098,-2.61734 4.00762,-4.00075 7.71016,-7.78689 11.1091,-11.35841 2.79914,-2.94128 5.39001,-5.87243 7.77155,-8.79563 2.38152,-2.92318 3.53706,-5.18975 3.46619,-6.79814 -0.0885,-2.0105 -0.62144,-4.6047 -1.59838,-7.78532 -0.97693,-3.18061 -2.47086,-6.239 -4.48291,-9.17337 -2.01207,-2.93436 -4.52846,-5.44435 -7.54905,-7.5293 -3.02063,-2.08498 -6.72241,-3.0324 -11.10713,-2.84252 z m -272.18799,91.46846 c -0.22604,0.1402 -0.45276,0.30184 -0.67845,0.46091 0.002,0.0617 8.6e-4,0.12017 0.003,0.18218 0.21142,-0.10845 0.42144,-0.21872 0.64026,-0.31427 0.0985,-0.0429 0.15174,-0.0703 0.24745,-0.11234 -0.0722,-0.0704 -0.14263,-0.14407 -0.21456,-0.21639 z m 3.03041,8.5123 c -0.17533,0.27677 0.0666,1.20935 0.1717,1.95744 -0.003,-0.0848 -0.004,-0.19377 -0.006,-0.24903 -0.0713,-0.89592 -0.11181,-1.28727 -0.16371,-1.70848 z m 7.13935,38.8719 c -1.25277,0.0548 -4.00892,1.58298 -8.26963,4.58753 -4.26956,2.80349 -8.72601,6.12009 -13.36886,9.94694 -4.44294,3.61676 -8.46356,7.31594 -12.06245,11.09757 -3.39894,3.57153 -5.05865,6.261 -4.97891,8.07043 l 0.21317,4.82606 c 0.0803,1.80942 0.56306,3.29882 1.4514,4.46894 0.45301,0.78613 0.89224,1.27037 1.31871,1.45335 4.38471,-0.18988 6.97793,-0.70441 7.77769,-1.54477 1.00855,-0.84939 2.13998,-1.30167 3.39276,-1.35591 3.13202,-0.13392 5.36862,0.77424 6.71001,2.7305 1.5413,1.74614 2.34612,3.42413 2.41699,5.0325 0.0966,2.2116 -0.30961,4.84794 -1.22071,7.90887 -0.71116,2.85085 -1.52219,5.80669 -2.43329,8.86763 -0.91109,3.06095 -1.8311,5.92066 -2.75989,8.57953 -0.72002,2.64979 -1.04795,4.67831 -0.98594,6.08562 l 0.11901,2.71481 c 0.12456,2.81469 -0.19172,5.14441 -0.94718,6.99 -0.75546,1.8456 -1.06571,4.2769 -0.93282,7.29263 l 0.62466,14.17368 -2.13321,8.55226 0.25102,5.73044 c 1.25275,-0.0548 2.01009,0.51696 2.27204,1.71421 0.26196,1.19727 0.42929,2.5996 0.50015,4.20801 l 0.21317,4.82604 c 0.0712,1.60839 0.55963,3.19748 1.46569,4.76972 1.11484,1.56319 2.43472,3.01772 3.95831,4.36178 1.53243,1.54512 3.15061,2.68388 4.85641,3.41576 1.92349,0.92387 3.6153,1.35318 5.07687,1.28989 2.088,-0.0896 4.42796,-1.60088 7.01829,-4.53312 2.80798,-2.74021 5.38995,-5.87463 7.74491,-9.40097 2.34609,-3.72737 4.48682,-7.3441 6.42418,-10.85234 1.93737,-3.50825 3.18969,-5.97992 3.75409,-7.41438 0.80861,-0.63932 2.32091,-1.91355 4.53793,-3.82246 l 6.62418,-6.33084 5.99756,-6.30173 c 1.79946,-1.89082 2.68652,-3.13763 2.65993,-3.74078 -0.0712,-1.60839 -0.23819,-3.01074 -0.50015,-4.208 -0.26195,-1.19726 -1.01934,-1.7703 -2.27213,-1.71608 l -5.95061,0.25794 c -1.46154,0.0642 -2.80002,0.52465 -4.01737,1.38306 -1.01739,0.64839 -2.02559,1.49787 -3.02529,2.54831 -0.78203,1.24248 -1.88153,2.39864 -3.29881,3.46717 -1.20849,1.05951 -2.64924,1.62436 -4.31963,1.6967 -1.46159,0.0632 -2.83528,-0.27907 -4.12352,-1.02902 -1.08828,-0.96006 -2.07788,-2.02646 -2.96623,-3.19659 -0.89721,-1.37117 -1.58079,-2.64998 -2.05154,-3.83819 -0.47962,-1.38926 -0.73623,-2.48687 -0.77166,-3.29106 -0.0966,-2.21157 0.23596,-4.13845 1.00029,-5.78301 0.96425,-1.85465 1.61909,-3.59481 1.9658,-5.22127 0.73775,-2.24772 1.3892,-4.08954 1.95358,-5.52401 0.77317,-1.44351 1.10992,-3.27061 1.01248,-5.48215 l -0.14497,-3.31831 c 0.34671,-1.62648 0.69775,-3.15246 1.05332,-4.57789 0.36443,-1.22436 0.62416,-2.44368 0.77979,-3.65903 0.1468,-1.41637 0.19739,-2.62649 0.1531,-3.63173 l -0.10683,-2.41396 c -0.18688,-4.22198 0.0646,-8.05943 0.74919,-11.51345 0.89337,-3.46305 1.25093,-7.20424 1.07374,-11.22523 -0.0529,-1.2063 -0.20636,-2.30753 -0.45932,-3.30372 -0.51506,-2.19348 -1.42551,-3.86774 -2.73145,-5.01979 l 2.44555,-8.56492 c -0.12456,-2.81466 -1.38786,-5.37962 -3.79093,-7.69276 -2.41192,-2.51419 -5.39166,-3.69413 -8.94121,-3.5404 z"
       id="text3340"
       inkscape:connector-curvature="0" />
    <text
       xml:space="preserve"
       style="font-style:normal;font-variant:normal;font-weight:normal;font-stretch:normal;font-size:161.77438354px;line-height:125%;font-family:Trattatello;-inkscape-font-specification:'Trattatello, Normal';text-align:start;letter-spacing:0px;word-spacing:0px;writing-mode:lr-tb;text-anchor:start;fill:#000000;fill-opacity:1;stroke:none;stroke-width:1px;stroke-linecap:butt;stroke-linejoin:miter;stroke-opacity:1"
       x="457.15256"
       y="884.79651"
       id="text3348"
       sodipodi:linespacing="125%"
       transform="matrix(0.91994982,-0.04041048,0.04710158,1.0849468,0,0)"><tspan
         sodipodi:role="line"
         id="tspan3350"
         x="457.15256"
         y="884.79651"
         style="font-size:450px"
         dx="0 -21.569918">nh</tspan></text>
    <text
       xml:space="preserve"
       style="font-style:normal;font-variant:normal;font-weight:normal;font-stretch:normal;font-size:875px;line-height:125%;font-family:Trattatello;-inkscape-font-specification:Trattatello;letter-spacing:0px;word-spacing:0px;fill:#000000;fill-opacity:1;stroke:none;stroke-width:1px;stroke-linecap:butt;stroke-linejoin:miter;stroke-opacity:1"
       x="112.28703"
       y="929.81763"
       id="text4549"
       sodipodi:linespacing="125%"
       transform="matrix(0.99918006,-0.04048725,0.04048725,0.99918006,0,0)"><tspan
         sodipodi:role="line"
         id="tspan4551"
         x="112.28703"
         y="929.81763">a</tspan></text>
    <text
       xml:space="preserve"
       style="font-style:normal;font-variant:normal;font-weight:normal;font-stretch:normal;font-size:375px;line-height:125%;font-family:Trattatello;-inkscape-font-specification:Trattatello;letter-spacing:0px;word-spacing:0px;fill:#000000;fill-opacity:1;stroke:none;stroke-width:1px;stroke-linecap:butt;stroke-linejoin:miter;stroke-opacity:1"
       x="355.1441"
       y="472.6748"
       id="text4553"
       sodipodi:linespacing="125%"
       transform="matrix(0.99918006,-0.04048725,0.04048725,0.99918006,0,0)"><tspan
         sodipodi:role="line"
         id="tspan4555"
         x="355.1441"
         y="472.6748">h</tspan></text>
    <path
       style="fill:#1a1a1a;fill-opacity:1"
       id="path4561"
       d="m 536.59678,236.86385 c 2.04279,5.88018 8.08121,2.9305 11.63091,5.28226 1.55626,1.03106 2.15497,3.13758 3.66595,4.23389 1.74491,1.26605 5.09509,0.10219 6.31055,2.63344 1.0862,2.26207 0.95009,4.92793 1.42514,7.39188 -6.94478,-5.59515 -0.15387,0.0456 0.55571,-0.11669 3.97534,-0.90915 -5.52164,-4.14339 -3.99965,-2.67809 10.43543,10.04675 9.00045,1.22938 8.31718,13.21686 -1.59495,15.33423 -10.16893,-6.45192 -9.0689,-11.10199 0.92544,-3.91202 5.49803,5.9682 8.83739,8.20626 5.01491,3.36104 2.45952,-1.32202 2.30952,-1.66389 1.12705,1.11261 2.2541,2.22522 3.38115,3.33782 6.08227,14.98461 5.78117,0.41755 6.17988,0.63192 2.0004,1.07556 2.40306,3.86794 3.35878,5.92828 0.38688,0.83404 -1.09213,-1.47933 -1.63818,-2.219 12.45359,8.33597 0.66475,25.94802 -11.78885,17.61205 l 0,0 c -1.69123,-1.47657 -3.16605,-3.24592 -5.07371,-4.42969 -0.72488,-0.44981 1.53432,2.98779 1.39401,2.14631 -0.32959,-1.97685 -2.63895,-3.78256 -1.98253,-5.67614 0.0562,-0.16215 10.68117,1.85259 -0.48083,0.18399 -2.30809,1.61372 -1.21219,1.01684 -6.65878,-3.45081 -1.40626,-1.15349 -5.18952,-3.8166 -3.42292,-4.24929 2.56464,-0.62814 7.58866,5.93693 7.18882,3.32694 -3.9729,-25.93351 -6.69157,-20.31461 -12.9636,-13.27461 1.46624,1.57764 2.85452,3.23148 4.3987,4.7329 1.92333,1.87009 4.7319,3.00358 5.99314,5.37122 0.76058,1.4278 -2.90445,-1.42926 -4.31512,-2.22115 -7.38519,-4.14579 -5.31079,-2.14362 -9.24905,-9.70662 0.1539,0.81067 0.30172,1.62251 0.46169,2.43201 0.0281,0.14222 -0.0848,-0.28611 -0.0661,-0.42987 0.09,-0.69257 0.79468,-1.48996 0.38933,-2.05867 -0.74327,-1.04284 -2.34675,-1.12278 -3.28109,-1.99856 -10.40078,-9.7489 5.2679,0.39932 -12.67596,-9.6077 -8.33343,-7.68437 2.53392,-19.46962 10.86735,-11.78524 z"
       inkscape:connector-curvature="0" />
    <path
       style="fill:#1a1a1a;fill-opacity:1"
       id="path4565"
       d="m 242.08944,390.141 c 40.43883,-12.90537 -2.93751,4.37392 14.8807,-10.70972 16.64431,-14.0899 4.82048,-1.69058 11.74168,-2.08303 1.01413,-0.0575 1.77276,-0.88098 2.65915,-1.32147 1.13539,0.12585 2.27077,0.25171 3.40616,0.37757 8.15513,-4.75333 -8.04009,4.73444 -12.43141,6.23471 -2.56257,0.87548 4.45495,-2.87606 6.33676,-4.63195 0.99656,-0.92986 0.98119,-2.57708 2.17446,-3.30971 9.24023,-5.67324 7.9242,-4.92711 15.48925,-3.20079 3.60378,-0.37264 10.01344,3.88475 9.97023,-1.18825 -0.003,-0.34968 -0.97217,0.83245 -0.58544,0.92254 16.033,3.73584 -10.9509,-7.22198 13.66257,4.04566 1.72443,-0.36919 3.40793,-1.2157 5.17328,-1.10756 0.54381,0.0333 -0.37367,1.0982 0.0176,1.42555 2.0593,1.72256 4.92344,2.61844 6.9309,4.38681 5.80775,5.11606 10.48852,10.08153 1.57694,15.02796 -8.83282,-6.52383 1.25763,-6.44798 2.1266,-4.89267 0.23033,0.41224 -0.7074,0.85389 -0.56566,1.29614 0.51428,1.60477 5.28805,10.41998 4.82593,11.63661 -0.60082,1.58174 -1.16275,-3.15138 -1.74412,-4.72706 2.26179,1.91559 6.8114,8.53739 6.92406,11.13388 0.17849,4.12338 -2.56464,3.93979 -3.52709,7.50141 -0.26947,0.99714 0.19309,2.03484 0.28964,3.05226 -3.7541,2.78865 6.74815,-1.8248 4.02441,3.13337 -3.23997,5.89793 -11.41235,6.967 1.09047,10.30131 -1.70318,3.29393 1.4518,-1.95946 -4.9825,1.72213 -0.53559,0.30645 1.56288,0.6085 1.37797,1.14175 -4.19311,12.09183 -4.48503,2.70622 -4.00388,12.43446 -3.28188,2.6477 -6.51288,5.34419 -9.84564,7.94311 -0.72812,0.5678 2.99436,-1.93109 2.02644,-1.84563 -1.95663,0.17276 -4.06857,0.85774 -5.38352,2.14202 -1.03714,1.01294 3.07773,-1.84654 4.44582,-1.2262 1.12304,0.50924 1.12207,2.57538 0.16951,3.31896 -3.24693,2.53454 -7.63354,3.65785 -11.4503,5.48678 -1.08634,0.30582 -2.47874,1.63136 -3.25903,0.91746 -0.70612,-0.64607 1.85926,-2.34643 2.47589,-1.63399 0.88652,1.02429 0.0102,2.64881 -0.56366,3.84332 -0.94441,1.96612 -4.07968,7.54793 -3.89063,5.42972 0.16435,-1.84132 11.91086,-28.13738 -0.56853,0.19799 6.13397,-1.29082 2.76719,-0.66241 -5.74973,1.95222 -0.18812,0.0578 0.40356,-0.0254 0.5881,-0.0916 0.89942,-0.32216 2.26215,-1.83771 2.64853,-1.06774 0.88265,1.75901 0.92371,4.15316 -0.28379,5.78035 -1.98367,2.67312 -5.66092,4.02984 -8.49138,6.04477 -1.45031,0.64258 -11.55937,4.99135 -12.32141,5.90769 -0.64334,0.77358 2.40391,1.3397 3.17475,0.65991 2.21856,-1.95655 2.47686,-5.1095 4.36729,-7.31125 1.03487,-1.20529 -0.77612,2.99442 -1.73537,4.24591 -0.61016,0.79603 -1.82759,1.06311 -2.74139,1.59468 -1.03476,3.26721 2.27243,-1.57735 2.04906,-0.93546 -1.02801,2.95435 -2.02771,5.9251 -3.34935,8.79205 -0.19896,0.43161 -1.22894,0.51513 -1.15214,0.97282 0.11215,0.66832 2.09145,0.98559 1.56506,1.48813 -1.71871,1.64088 -4.41109,2.22311 -6.61663,3.33467 -0.0102,1.50883 1.36809,3.62299 -0.0307,4.52649 -2.03591,1.31501 -7.83352,2.55858 -7.55523,0.3733 0.51109,-4.01351 5.70133,-6.41576 8.71808,-9.50489 0.99483,-1.01869 -2.87599,1.97225 -2.64341,3.28447 0.29375,1.65726 2.59268,2.46177 3.88119,3.69888 0.86391,0.82945 1.71734,1.66716 2.57602,2.50075 0.3922,4.90302 3.83765,4.16728 -1.45207,7.16453 -0.25283,12.539 -20.6066,12.42678 -20.35376,-0.11223 l 0,0 c -4.34062,-2.52469 -0.5031,-1.69231 -2.51512,-5.08558 -0.86236,-0.56743 -2.07776,-0.8712 -2.5871,-1.70231 -2.92911,-4.77957 8.03541,-17.58432 8.72119,-21.23632 0.38698,-2.06086 -4.47303,1.89257 -5.96707,3.53554 -0.46341,0.50959 0.91994,1.00587 1.37991,1.50881 -3.12842,1.17917 2.73922,-0.99927 2.99344,-1.58234 0.80616,-1.84889 -0.0918,-3.95492 -0.48694,-5.89113 -0.36874,-1.80656 -0.9179,4.08189 0.4071,5.49994 1.91899,2.05376 3.65027,-11.14907 1.74384,-7.85918 -0.55387,-0.3933 -1.85979,-0.57633 -1.6616,-1.17988 0.18461,-0.56225 1.33847,1.18348 1.80046,0.75703 5.61825,-5.18617 4.55168,-8.95835 10.99095,-13.33518 0.52605,-0.35756 0.92827,1.07982 1.58988,1.02827 0.76668,-0.0597 1.18963,-0.86078 1.78445,-1.29117 0.35486,1.30126 1.70273,2.67733 1.06459,3.90379 -0.43302,0.83225 -2.1749,-1.16549 -2.02035,-2.06689 0.48262,-2.81488 4.7468,-10.7022 8.25594,-12.61257 0.71905,-0.39145 0.23528,1.45312 0.35292,2.17966 1.07703,-1.91809 2.15405,-3.8362 3.23107,-5.75431 -2.02911,3.13235 -9.46656,11.46669 -6.08734,9.39707 4.35424,-2.6668 6.84225,-7.20695 9.25396,-11.33649 0.79952,-1.369 -3.00768,1.6597 -4.24369,2.75745 -0.21779,0.19343 0.71155,0.44383 0.88936,0.22164 8.4415,-10.54792 0.90371,-5.50002 10.40684,-10.60985 0.49048,0.76 1.29127,3.14362 1.47142,2.27999 0.40088,-1.92184 -2.13315,-4.26933 -0.73596,-5.80588 2.18463,-2.40248 6.40925,-2.51565 9.5511,-3.88841 0.42378,-0.18515 -1.74864,0.56775 -1.37296,0.31518 1.65711,-1.11413 5.63992,-4.73824 5.28791,-2.94735 -0.55951,2.84666 -4.04394,4.6037 -6.06589,6.90556 5.49755,-4.91136 0.33992,0.50391 4.1948,-7.31958 0.27702,-0.56221 0.73503,1.71078 0.0469,1.82703 -0.68774,0.11614 -0.14297,-1.34494 -0.69046,-1.71832 -0.58004,-0.39563 -2.06738,0.38056 -2.19979,-0.25299 -0.13441,-0.64298 1.28718,-0.68946 1.93076,-1.03419 7.79085,-3.02892 -0.43702,1.11812 -2.50187,-4.56869 -0.96303,-2.65233 6.96067,-5.60364 1.34849,-9.85886 0.30846,-1.15879 0.56231,-2.32913 0.92536,-3.47636 0.18102,-0.57203 4.76839,-8.10948 -1.7752,-4.66717 -0.54074,0.28446 7.97309,1.56501 1.52517,-1.49441 -1.75198,-2.87148 -3.99324,-5.55054 -5.25594,-8.61443 -0.18473,-0.44827 1.23699,-0.48987 1.63708,-0.16665 1.39237,1.12477 1.69362,3.11349 3.22396,4.09348 0.78051,0.49981 -0.057,-1.82509 -0.68487,-2.46753 -8.89683,-9.10379 1.60459,13.33827 -7.17903,-12.02282 0.57633,-1.29877 0.58907,-2.91654 1.72899,-3.89636 0.52504,-0.45129 0.40921,1.22634 0.69682,1.81126 0.90054,1.83147 1.67615,3.72986 2.86395,5.43039 0.84169,1.20501 4.71064,2.73894 3.16776,3.20498 -3.97172,1.19971 -6.7045,-3.00985 -8.36616,-4.99184 0.6717,-0.67159 2.68357,-1.35383 2.0151,-2.01476 -0.0973,-0.0962 -4.59326,2.16795 -5.03558,2.20347 -0.66938,0.0537 -1.21509,-0.51545 -1.87205,-0.6303 -5.65768,-0.98914 -4.80964,-0.41717 -11.29502,1.02022 -0.6791,-0.84392 -2.57743,-1.60341 -2.03732,-2.53176 0.82475,-1.4176 3.03479,-1.96025 4.82273,-2.25583 1.44194,-0.23838 4.12133,2.01584 4.29965,0.74771 0.22606,-1.60768 -2.30443,-4.20796 -3.9261,-3.40411 -5.04682,2.50165 -6.32473,8.91544 -11.60482,11.33277 -9.24141,-1.82448 1.581,-0.11081 -6.11237,-0.21755 -0.78879,-0.0109 -2.90756,-0.10135 -2.2819,-0.52632 1.41485,-0.96101 3.65491,-2.27268 5.12292,-1.40339 3.62757,2.1481 -21.36101,4.94398 -10.57699,7.02386 -9.6866,12.2127 -29.36068,0.47271 -19.67408,-11.73999 z"
       inkscape:connector-curvature="0" />
    <path
       style="fill:#1a1a1a;fill-opacity:1"
       id="path4567"
       d="m 469.80827,801.83984 c 12.83019,-8.78374 4.77135,-2.19586 11.82637,-9.70573 0.97481,-1.03767 3.73155,-4.22087 3.08788,-2.95095 -1.28669,2.53854 -5.8793,4.13806 -5.07303,6.86748 1.18847,4.02321 8.52541,12.29308 9.52993,8.22004 1.18584,-4.80823 -5.70861,-8.094 -8.56292,-12.141 1.49462,-1.82932 3.65688,-3.27517 4.48387,-5.48795 0.43134,-1.15417 -1.411,-2.32773 -1.11582,-3.52399 0.37284,-1.51097 2.067,-2.346 2.89017,-3.66676 0.25559,-0.41009 0.0323,-1.00804 0.28147,-1.42206 3.17996,-5.28435 5.87726,-5.52647 3.04419,-5.10217 -0.85988,10.03842 -5.83698,4.4278 6.37013,-6.87221 1.68726,-1.56189 8.11382,-3.00246 6.80765,-1.11031 -9.69362,4.66775 -10.19104,7.50456 -8.3173,2.34029 1.39222,-1.58704 2.60866,-6.17473 4.17666,-4.76111 9.18079,8.27686 12.87758,16.11718 5.15841,23.86337 -7.37452,4.67687 -4.04113,1.97671 -10.04172,8.04889 3.08267,4.90629 -1.72182,-1.79084 2.51071,-3.6014 1.34901,-0.57709 1.20336,2.74472 1.28626,4.20964 0.025,0.44507 -0.86153,-1.15408 -1.09175,-0.77234 -1.52482,2.52836 -0.97998,6.46786 -3.38016,8.1874 -1.80918,1.29612 -4.39667,-0.69402 -6.59499,-1.04103 0.32062,1.73447 1.9628,3.75106 0.96184,5.20338 -1.24105,1.80067 -4.27682,1.16614 -6.14048,2.31042 -1.28712,0.79029 -2.05776,2.21181 -3.06204,3.33993 -1.44487,1.62304 -2.95223,3.19656 -4.28489,4.91294 -2.68497,3.45803 -5.23316,9.26294 0.62576,-2.55911 -3.333,-6.4944 3.04677,-6.98589 2.77563,-1.40786 -0.26359,5.42243 -2.75497,9.63009 -5.0629,14.18258 -9.80962,10.36986 -24.47481,-3.50303 -14.66519,-13.87289 l 0,0 c 0.82532,2.26727 0.32685,5.31549 2.13093,6.91764 0.75494,0.67043 3.18562,-0.55578 2.67263,-1.42542 -0.85271,-1.44555 -3.10068,-1.28557 -4.65101,-1.92837 -0.70358,-3.10806 -1.40714,-6.21613 -2.11072,-9.32419 2.80221,-2.22779 5.16968,-5.23265 8.48466,-6.58407 1.16837,-0.47631 2.63558,-0.26281 3.64536,-1.01932 0.98899,-0.74093 1.1038,-2.24796 1.93562,-3.16184 9.43934,-10.37045 -7.80292,13.99749 7.30969,-8.82642 0.60313,-0.38363 1.51252,-1.80111 1.80939,-1.15087 0.61398,1.34476 1.14551,4.19607 -0.31516,4.42367 -1.42364,0.22184 -0.28251,-2.87939 -0.6431,-4.27436 -0.13222,-0.51151 -0.19599,2.09253 -0.0523,1.58411 2.83956,-10.0477 -1.13183,-8.37208 6.33687,-8.94132 0.8107,0.27963 1.68696,1.26336 2.43212,0.83889 1.62417,-0.92517 2.71747,-2.6465 3.61732,-4.28482 0.44029,-0.8016 3.6068,-13.98214 7.69731,-11.65733 5.27192,2.99626 6.20036,10.65424 10.71845,14.6987 0.961,0.86027 1.3357,-2.20687 2.00355,-3.31031 -5.07097,5.70557 -1.44618,2.20797 -12.35454,8.70153 -1.04983,1.02868 3.47158,0.63898 4.37896,-0.51728 2.68208,-3.41778 3.03886,-8.20657 5.35265,-11.88365 2.11424,-3.35996 -5.94748,20.34945 -0.4129,11.90222 -1.09548,0.62699 -2.10904,1.42612 -3.28647,1.88095 -0.61527,0.23767 1.39276,-1.85229 1.56196,-1.21478 0.55579,2.09408 0.75556,4.53406 -0.15981,6.49777 -0.45002,0.96539 -10.61742,4.89354 -9.03129,5.48189 -2.9509,-3.56451 -12.53924,-7.89661 -8.85268,-10.69352 3.79306,-2.87771 9.40948,4.53705 11.1015,8.98739 1.08785,2.86128 -3.38821,5.12607 -4.68054,7.90101 -0.21295,0.45725 0.60952,1.07408 0.31126,1.48084 -3.68305,5.02266 -6.99921,6.13456 -12.3389,9.23311 -8.49896,9.21681 -21.5335,-2.80253 -13.03454,-12.01934 z"
       inkscape:connector-curvature="0" />
    <path
       style="fill:#1a1a1a;fill-opacity:1"
       id="path4571"
       d="m 608.92696,361.93296 c -1.03076,-0.46154 -7.33789,13.73846 -8.01075,14.13716 -1.3945,0.82629 -3.13779,0.84516 -4.64117,1.45116 -0.7835,0.31582 2.87645,-1.31476 2.46814,-0.57523 -0.52943,0.9589 -1.9666,0.96519 -2.94991,1.44779 5.38323,1.2993 0.88789,0.18531 0.75201,0.23581 -0.31998,0.11889 -0.3059,0.61071 -0.47522,0.9071 -0.59915,1.04874 -1.55637,1.95106 -1.82976,3.12754 -1.20266,5.17535 1.69234,0.90625 -0.0224,3.20493 -0.34211,1.03186 -0.45361,2.17158 -1.02632,3.09557 -0.28066,0.45281 -1.08954,0.35331 -1.38579,0.79606 -1.01407,1.51557 -1.94079,9.3079 -2.05273,11.63097 -4.12611,10.16395 1.67643,-0.38721 -6.85205,4.64815 -0.73271,0.43261 1.64835,0.73459 2.09457,1.45908 0.32592,0.52918 0.13219,1.26906 -0.0479,1.86387 -0.0641,0.21165 -0.46421,0.10668 -0.60142,0.28008 -0.88572,1.11957 -1.61138,2.35694 -2.41708,3.5354 -0.52167,0.87986 -3.01501,5.58284 -4.44111,6.53425 -0.28748,0.19179 -0.7505,-0.71818 -0.94288,-0.43108 -1.28106,1.9119 0.72662,6.89181 -4.30902,6.47237 -2.55833,-0.2131 -4.11593,-3.06935 -6.17389,-4.60401 3.54424,-2.91672 1.70094,-9.77327 2.77421,-12.62955 0.54126,-1.44048 1.50582,-2.74417 2.63251,-3.79227 0.5254,-0.48876 2.21621,0.11885 2.07199,-0.58409 -0.16749,-0.81641 -1.57383,-0.54894 -2.36075,-0.82342 -4.38711,3.32057 5.58058,-9.17898 5.7348,-9.8088 0.11892,-0.48569 -0.0169,-1.2753 -0.49691,-1.4154 -0.3959,-0.11554 -0.36136,0.74145 -0.54204,1.11217 2.34153,4.70381 3.19687,-5.4149 3.03748,-7.25711 -0.0638,-0.73823 -1.12581,-1.4872 -0.71594,-2.1045 0.76847,-1.15741 2.37088,-1.44896 3.55633,-2.17343 0.67772,-1.23582 1.35544,-2.47163 2.03317,-3.70745 0.75768,-1.93594 3.26262,-2.82937 3.91698,-4.78363 0.18468,-0.55157 -1.45122,-0.95386 -1.06112,-1.38531 3.17348,-3.50986 5.93147,-1.40618 2.26089,-2.12838 -0.57494,-4.04528 4.73334,-2.80293 5.76382,-5.16895 0.27824,-0.63885 -2.07085,1.09695 -2.05174,0.4004 0.0301,-1.09793 1.92457,-1.44814 2.11016,-2.53069 1.17935,-6.87914 -4.14725,0.24041 0.7265,-5.1449 2.02854,-2.26323 5.12414,-5.62038 6.60637,-7.76709 0.66964,-0.96983 0.90815,-2.27231 1.79923,-3.04367 0.59016,-0.51087 1.52584,-0.33007 2.28878,-0.4951 7.49276,5.27181 -5.1191,3.25387 -4.40928,1.82967 0.3942,-0.79094 1.4638,-1.11518 1.8277,-1.92051 0.65742,-1.45491 0.29888,-3.2957 1.14192,-4.65151 2.25885,-3.63282 4.32678,-3.87171 7.77669,-5.15258 2.32209,2.29342 4.85728,3.84755 4.18379,7.93563 -0.16701,1.01372 -2.6845,0.79797 -2.49618,1.80793 0.17269,0.92622 1.88627,-0.10125 2.82628,-0.0375 0.43699,0.0296 -1.16616,-0.27434 -1.30643,0.14061 -0.16219,0.47978 0.55222,0.84912 0.82834,1.27368 -0.71608,2.9523 -1.60984,8.65407 0.17061,11.46293 1.49319,2.35567 4.11863,1.19051 0.82514,4.62179 -1.87755,2.16823 -4.19834,5.32833 -6.92332,6.63485 -0.92367,0.44286 -3.94015,-0.17517 -3.05426,0.33911 0.97885,0.56826 2.7196,-1.05281 3.39254,-0.14247 1.79764,2.43116 -2.95045,2.03645 -4.3108,2.033 0.14199,4.37831 0.88107,1.50699 -2.05864,2.46683 -0.22112,0.0722 0.31451,0.54014 0.1326,0.68511 -2.23513,1.78115 -4.71859,0.15467 -1.53755,3.46277 -2.92154,9.74504 1.08073,-0.12086 -3.72609,5.14993 -0.30755,0.33723 1.48933,-0.38128 1.36799,0.0587 -0.33626,1.21925 -1.83067,1.8695 -2.23067,3.06935 -0.29773,0.89305 0.71436,1.98111 0.27024,2.81112 -0.75818,1.41696 -2.35394,2.18848 -3.5309,3.28272 -0.76912,0.11704 -2.11229,-0.40187 -2.30731,0.35125 -0.1886,0.72831 1.15905,1.33769 1.90146,1.21594 0.91493,-0.15004 1.31488,-2.41416 2.06264,-1.866 0.77266,0.56641 -0.38236,1.91529 -0.87237,2.73854 -3.88639,6.52938 -3.21257,1.61826 -3.33744,7.05691 -0.99075,5.84857 -7.1867,6.5182 -9.64583,11.77391 -1.86831,-2.50211 -7.46196,-8.17734 -6.94486,-12.61024 0.57284,-4.9108 3.14512,-4.30882 6.16558,-6.31169 2.56535,-2.36043 1.33297,-1.44286 3.57496,-2.9096 2.86629,-2.48653 0.62338,-0.79121 0.79551,-0.29985 0.0859,0.24525 0.73125,0.55423 0.72181,0.29453 -0.0419,-1.15705 -1.41416,-2.37005 -0.83375,-3.37186 0.68868,-1.18867 2.60367,-0.94424 3.76213,-1.68258 1.22115,-0.77828 2.20256,-1.88054 3.30384,-2.82081 0.39136,-0.96485 0.78274,-1.9297 1.17411,-2.89456 -0.13213,-0.67757 -0.63648,-1.38548 -0.39637,-2.03272 0.382,-1.02967 1.49488,-1.62325 2.09412,-2.54361 0.24328,-0.37362 0.0762,-0.96569 0.39425,-1.27812 1.78707,-1.75536 3.74919,-2.55002 5.90975,-3.61587 7.65946,0.11867 1.42198,2.87982 0.28481,1.87712 -0.96883,-0.85428 0.52925,-2.53737 0.61213,-3.82639 0.0627,-0.97511 -0.67377,-2.08398 -0.17801,-2.92599 0.6751,-1.14647 2.17225,-1.53687 3.25838,-2.3053 4.56658,-1.3622 -0.97236,0.74074 -0.27246,-1.75107 0.33965,-1.20923 2.04244,-1.48653 2.90618,-2.3984 1.55744,-1.64424 1.39283,-4.81767 1.57583,-6.7171 10.19894,7.52293 2.85006,-3.48232 4.8935,-3.88628 1.33125,-0.26317 2.89647,1.12051 4.05065,0.40683 5.75667,-3.55961 -1.96561,-1.16313 -1.99131,-2.01311 -0.0435,-1.4359 0.0806,-2.87197 0.12084,-4.30797 1.26752,-4.67572 -0.76531,0.58206 2.4363,-1.97447 9.67034,-7.72194 -1.42615,0.1775 1.95548,-4.42599 4.08317,-5.55852 2.72728,-0.79626 3.5201,-4.25432 1.22108,-0.55958 2.64165,-0.80663 3.66323,-1.67872 1.39944,-1.19467 -1.19525,-0.75069 -1.00983,-1.24227 0.4648,-1.23227 1.42191,-2.24241 1.86802,-3.48158 0.21257,-0.59045 -0.30255,-1.37137 0.0628,-1.88161 0.9167,-1.2803 2.35412,-2.0919 3.53119,-3.13785 5.7185,1.9173 7.24003,0.40567 7.69182,6.15103 0.16433,2.08933 0.42322,4.31273 -0.29867,6.28026 -0.43337,1.18115 -1.98716,1.55088 -2.89442,2.42254 -1.63587,1.57167 -1.5684,2.30348 -2.45303,4.59235 -4.78555,0.83462 -6.66141,-0.55445 -6.75156,4.90231 -0.004,0.25379 0.83053,-0.56747 0.66035,-0.37915 -1.00883,1.1164 -4.90868,4.49661 -5.67245,5.17285 -0.93131,1.09129 -2.64651,3.17333 -3.61507,3.80582 -0.20917,0.1366 -0.45661,-0.68948 -0.58134,-0.47302 -0.61308,1.06391 -0.40482,2.52842 -1.1607,3.49611 -0.55653,0.71246 -1.6524,0.73559 -2.46085,1.14022 -0.79275,0.39677 -1.56036,0.8419 -2.34052,1.26285 -4.96987,0.0514 -1.26681,3.0677 1.40704,0.61498 0.49352,-0.45271 -1.52438,-1.34306 -1.85872,-0.76278 -5.92682,10.28662 4.38023,2.97139 -5.91189,8.71377 1.27571,1.13974 -5.29287,2.16053 -4.64568,1.99341 0.73727,-0.19037 1.83879,-1.33655 2.1871,-0.65944 1.55945,3.03158 -0.52607,6.98572 -1.506,9.64227 -1.88632,10.93992 -1.46016,6.73099 -10.3338,8.7218 -1.28104,0.2874 2.98556,-0.81202 3.93755,0.0921 1.7135,1.62725 -1.41952,7.02588 -1.80385,7.88261 0.54644,5.73007 1.28404,1.93383 -4.63987,4.66623 -0.33121,0.15278 -0.17879,0.70723 -0.26818,1.06085 -2.20519,-0.53797 -4.94897,-0.0729 -6.61556,-1.6139 -1.4886,-1.37644 1.46257,-8.9891 1.66677,-9.63747 0.50951,-0.75811 1.01901,-1.51622 1.52851,-2.27433 0.88639,-0.94288 1.89812,-1.78197 2.65917,-2.82864 0.45842,-0.63048 0.21335,-1.88438 0.95099,-2.13647 1.6959,-0.57958 3.6264,0.35995 5.37655,-0.026 2.51128,-0.55379 1.07718,-1.6561 0.51814,-2.314 7.41775,-3.09397 -0.32854,0.84724 5.26934,-4.28133 4.86842,-4.46028 4.40597,-0.62265 5.16433,-8.2435 2.70913,-1.38395 2.41671,-5.38161 4.70607,-7.02633 1.3983,-1.00457 3.34825,-0.82309 4.97762,-1.37945 4.05465,-1.38453 4.43324,-2.38201 7.95984,0.8752 -2.42428,0.83981 -4.84135,3.33813 -7.27282,2.51941 -1.50435,-0.50652 1.12281,-3.04857 2.17712,-4.23519 0.98059,-1.10365 2.54663,-1.5076 3.72064,-2.40273 0.7303,-0.55683 1.26162,-1.34054 1.96431,-1.93182 2.45234,-2.0635 4.67579,-3.25672 2.61283,-2.11154 6.78357,-1.89757 -2.31689,0.57625 2.35038,-5.21133 1.01879,-1.26335 2.8155,-1.61522 4.22324,-2.42284 2.86399,-3.32321 7.56372,0.72707 4.69974,4.05028 l 0,0 c -0.40638,0.86666 -0.81277,1.73332 -1.21915,2.59998 -0.79082,0.0503 -1.94025,-0.51342 -2.37246,0.15078 -0.40181,0.61746 3.40295,10.17791 -2.41484,6.25292 -6.37937,5.37368 0.17506,-1.46062 -5.29776,3.01049 -0.33318,0.27219 -2.29824,4.08055 -0.46986,1.20213 -2.07088,1.21798 -4.14177,2.43596 -6.21266,3.65394 -1.03943,1.46669 -1.87035,-0.7194 -3.2812,0.96015 -0.47645,0.56719 -0.17463,1.59339 -0.70938,2.10598 -0.67054,0.64273 -1.72111,0.69909 -2.58166,1.04864 0.0559,2.85652 0.49534,8.17832 -1.48559,10.3637 -0.85308,0.94114 -5.44414,-0.35921 -6.89534,0.78611 -0.81659,0.64447 -0.98968,1.84177 -1.63185,2.66019 -0.41342,0.52687 -1.00151,0.88938 -1.50227,1.33408 -0.61378,1.01781 -3.57696,7.20609 -6.0858,7.02769 -0.96693,-0.0688 1.16696,-1.71846 1.11386,-2.68639 -0.031,-0.56719 -0.94615,0.7045 -1.19456,1.21533 -2.48317,5.10653 1.32056,1.54443 -3.77222,5.12262 -0.49269,0.15781 -1.18178,0.0489 -1.47806,0.47342 -0.21482,0.30749 0.79101,1.01497 0.41712,1.04516 -4.22777,0.34146 -10.16159,1.43658 -6.36529,-3.95492 0.24649,-0.35008 0.45362,0.72629 0.68043,1.08943 0.66131,-0.99367 1.32264,-1.98734 1.98396,-2.981 2.463,-2.27867 1.71061,-0.79857 1.63095,-4.70652 2.39929,-2.90456 6.29404,-4.33145 8.65772,-7.26506 1.21846,-1.51226 -3.23189,2.26891 -5.08927,2.83616 -1.58125,0.48293 4.55627,-10.49712 2.72581,-4.14394 0.24554,-1.60379 0.81031,-3.19057 0.73661,-4.81136 -0.27148,-5.97105 -3.4398,-1.87012 0.63094,-8.88138 1.64636,-2.83563 3.52896,-0.78837 6.03219,-2.09979 0.59462,-0.31151 0.45949,-1.26147 0.68924,-1.89219 0.33525,0.63547 0.80924,1.21533 1.00576,1.90642 0.26351,0.92667 0.56478,3.80835 0.35212,2.8687 -0.25049,-1.10681 -0.23856,-2.26059 -0.46611,-3.37235 -1.65989,-8.10998 -1.8493,-4.85964 5.50321,-9.65803 1.04403,-0.7742 2.06759,-1.57677 3.13208,-2.3226 0.34662,-0.24286 0.84863,0.99528 1.09149,0.64867 0.75769,-1.08139 0.53677,-2.61917 1.14049,-3.79349 0.5983,-1.1638 6.32471,6.16314 3.08484,-2.42801 4.87346,-0.97212 -2.13608,1.03256 1.4642,-4.11756 5.07885,-7.26519 2.65509,0.27374 5.72556,-2.35191 0.91205,-0.77992 1.20647,-2.27763 2.30162,-2.76828 0.58987,-0.26427 1.11147,0.6601 1.6672,0.99015 -0.3581,-1.73934 -0.88258,-2.5589 0.22729,-4.23415 2.98804,-4.51012 4.68895,-2.44831 8.65562,-1.7414 -0.16516,-0.57028 0.0934,-1.78641 -0.49548,-1.71083 -0.86811,0.11143 -1.3558,1.19273 -1.70866,1.99367 -0.118,0.26785 0.90311,-0.38735 0.87275,-0.0962 -0.17796,1.70608 -0.2401,3.67561 -1.37981,4.9576 -0.87659,0.98599 -2.8315,0.0833 -3.84868,0.92353 -0.45368,0.37474 0.58208,1.02283 0.87313,1.53423 -0.79028,0.80773 -1.44017,1.78219 -2.37081,2.42318 -0.38904,0.26795 -1.13782,-0.21088 -1.40593,0.17805 -0.74451,1.08 -0.66221,2.56442 -1.28168,3.72068 -0.13721,0.2561 -0.6092,0.059 -0.83874,0.23715 -1.57744,1.224 -0.49155,2.03262 0.0636,3.94344 -2.82914,-2.2174 -1.43176,5.36211 -4.50107,7.91271 -0.53878,0.44772 -1.43163,-0.79008 -2.05029,-0.46146 -4.10828,2.18233 -1.04286,3.64263 -3.10951,2.46136 -2.44596,0.78516 -1.53075,4.50956 -1.6754,6.22858 -0.12123,1.44056 -3.4337,0.2656 -4.03965,1.57814 -0.75749,1.64079 0.48064,3.5823 0.72096,5.37346 -0.59464,0.32044 -1.49668,0.0311 -1.95719,0.52524 -0.42345,0.45441 -0.0507,1.34446 -0.46937,1.80329 -1.51022,1.65511 -5.64879,5.78198 -8.56954,6.81311 0.24097,-1.0211 1.67031,-3.8216 1.07353,-2.95871 -0.35418,0.51214 -0.53352,1.13479 -0.90678,1.63319 -0.14413,0.19246 -0.54414,0.15693 -0.60754,0.38887 -2.75373,10.07425 1.63643,-0.55472 -2.91303,9.36413 -0.97402,0.99154 -1.89395,2.03932 -2.92207,2.97466 -0.53637,0.48797 -1.0746,1.03778 -1.75723,1.28236 -0.23343,0.0836 -0.49857,-0.66251 -0.60189,-0.4371 -1.12691,2.45866 0.79982,3.85268 -3.34206,6.02811 -1.37639,0.59565 -2.84728,1.0085 -4.12918,1.78695 -0.48733,0.29593 -0.69626,1.80629 -1.04426,1.35467 -0.51396,-0.667 0.89251,-2.13479 0.14477,-2.52198 -0.73033,-0.37818 -1.75814,0.82605 -1.83939,1.64447 -0.17959,1.80919 2.61939,4.26606 1.14681,5.33235 -2.39007,1.73063 -5.89944,0.16319 -8.84917,0.24485 5.21316,2.29457 -0.31609,0.79627 4.43697,-4.64946 0.52801,-0.60496 1.55451,0.87698 2.32205,0.6411 1.75204,-0.53843 1.82936,-5.07095 2.32633,-6.00279 0.58074,-0.50894 0.97112,-1.48569 1.74222,-1.52682 0.58723,-0.0318 1.04049,1.95939 1.10548,1.37492 0.0906,-0.81497 -0.9104,-1.42953 -1.00887,-2.2436 -0.44274,-3.66047 1.45446,-4.906 1.8486,-8.32104 0.93597,0.18172 2.01812,1.0793 2.80789,0.54516 1.0872,-0.73529 2.00292,-7.10537 2.73131,-8.54554 0.1328,-0.26257 0.73756,-0.23788 0.70562,-0.53038 -0.0569,-0.52088 -0.60265,-0.85735 -0.90399,-1.28603 0.73485,-1.79967 1.95604,-4.96967 2.95607,-6.39581 0.37148,-0.52978 1.20894,-0.59921 1.57766,-1.13092 0.22427,-0.3234 -0.12741,-0.81763 0.0251,-1.1804 0.7373,-1.75305 1.89944,-1.94883 3.52104,-2.83986 1.11169,1.20679 1.015,-2.50392 4.00875,-4.383 0.5501,-0.34527 0.92247,0.9731 1.52722,1.2099 1.89642,0.7426 1.23246,-1.06096 1.60341,0.88159 0.98833,-2.41447 -1.17682,-3.49527 -1.06346,-4.14163 0.1866,-1.06399 1.81786,-1.54607 1.90323,-2.62292 0.23357,-2.94614 -3.13979,-5.59209 -1.29759,-8.77069 -5.2464,-7.2042 1.1465,-2.05444 2.41237,-8.78616 0.15517,-0.8252 -2.43301,0.28508 -2.26258,1.10728 0.52949,2.55451 3.84112,3.81772 4.41614,6.4615 -1.01984,-1.67796 -3.75378,-5.52075 -4.41754,-2.18608 -0.19742,0.99179 2.06074,0.8449 2.46143,1.77337 1.30476,3.02334 -1.28217,5.63471 -2.63054,7.79772 0.0272,1.93793 -1.23802,3.0786 -3.87156,2.90806 -0.76693,-0.0497 -0.97585,-2.26416 -1.52642,-1.72796 -0.64989,0.63291 0.64229,1.75749 0.56777,2.66159 -0.0223,0.27134 -0.53368,0.10819 -0.80052,0.16229 0.0302,1.47506 0.0577,2.95018 0.0908,4.42518 0.0358,1.59546 0.98673,3.44885 0.11587,4.78617 -0.65923,1.01239 -2.6307,-0.20258 -3.58392,0.53965 -0.97923,0.7625 -0.50741,2.65455 -1.49069,3.41181 -0.32267,0.2485 -2.19922,-4.33514 0.86283,-0.86506 -0.58187,1.41218 -1.16373,2.82437 -1.7456,4.23656 -0.75491,0.85897 -1.76136,1.55011 -2.26471,2.57693 -0.1403,0.28621 0.63372,0.0692 0.95058,0.10382 -0.26426,1.31169 -0.52852,2.62339 -0.79279,3.93508 -1.2749,0.63417 -2.76221,-2.30858 -3.97546,-1.56322 -1.34956,0.8291 -0.68699,3.09241 -1.03049,4.63861 -0.48447,0.92336 -0.68414,2.06615 -1.4534,2.77009 -2.29129,2.09674 -2.12002,-1.80108 -2.96486,2.27325 -0.24414,1.17738 0.8534,4.21198 -0.18318,3.60262 -0.67218,-0.39516 -2.73013,-9.82143 -0.78325,-1.35061 0.47338,1.37303 1.86024,2.735 1.42015,4.11907 -0.35564,1.1185 -2.38692,0.62471 -3.19819,1.47287 -2.67308,2.79462 -2.44441,6.38453 -3.7022,9.10114 -0.78448,1.16653 -1.50528,2.37849 -2.35342,3.49958 -0.22063,0.29162 -0.53276,0.92094 -0.83365,0.71311 -0.49179,-0.33969 -0.61378,-2.29147 -0.58695,-1.69435 0.0542,1.2132 0.67233,2.36636 0.67176,3.58078 -0.004,8.77008 -1.22801,2.21996 -0.3805,6.21572 -2.47735,-1.50509 -4.41459,-4.15729 -6.50987,0.33914 -0.38893,0.83464 1.97326,-0.43567 2.48882,-1.19861 1.95651,-2.89523 -1.01131,-4.72446 3.33967,-6.78103 -0.39832,-10.59825 3.26271,-5.69974 8.18034,-12.40342 0.56695,-0.77287 -4.85733,1.00005 -1.92865,2.13287 -0.13172,-9.46795 -0.64753,1.45754 1.79639,-6.93744 2.53079,-8.69343 -5.33315,6.43143 -0.0432,-7.34311 0.50809,-1.32304 1.91875,-2.08632 2.87812,-3.12948 0.0987,-0.4194 0.19748,-0.8388 0.29622,-1.2582 0.43584,-0.35391 0.89445,-0.6815 1.30751,-1.06174 0.62311,-0.5736 1.00053,-1.50836 1.79706,-1.79613 0.34295,-0.12392 0.12987,0.71766 0.19481,1.07649 -0.80454,-1.31501 -1.60907,-2.63002 -2.41361,-3.94502 0.95654,-2.4345 8.13812,1.31009 6.2272,-4.7747 -0.36827,-0.0971 -1.4311,-0.0948 -1.10482,-0.2913 1.0842,-0.65277 2.48244,-1.8066 3.59862,-1.21015 0.82731,0.4421 -1.55256,3.28993 -0.83316,2.68796 0.75911,-0.6352 0.51313,-1.92907 0.97343,-2.80533 0.78346,-1.49146 1.70897,-2.91376 2.73338,-4.25124 1.76145,-2.29979 3.73853,-4.42609 5.6078,-6.63913 2.18176,-3.16861 6.66285,-0.0831 4.48109,3.08548 z"
       inkscape:connector-curvature="0" />
    <path
       style="fill:#1a1a1a;fill-opacity:1"
       id="path4573"
       d="m 598.53129,393.62707 c -0.50974,1.11579 -3.49498,8.17498 -4.99079,10.05918 -1.45712,1.83543 -4.57508,3.12233 -5.20363,5.66715 -0.21279,0.86152 0.44209,2.89811 1.17041,2.39113 0.89584,-0.62361 0.0644,-2.18211 0.0967,-3.27317 3.27121,-2.80285 -7.71731,-2.12849 -7.68601,-5.2507 0.01,-0.95619 1.22792,-1.68375 1.13344,-2.63531 -0.91414,-9.20699 -4.30406,1.76977 0.32632,-8.78927 2.03638,-2.03739 3.40042,-3.47703 5.72677,-5.39386 0.11201,-0.0923 0.57393,-0.0852 0.42935,-0.0725 -0.59993,0.0529 -1.93779,0.77846 -1.79646,0.19301 0.21466,-0.88928 1.48231,-1.07874 2.15889,-1.69447 1.16857,-1.06344 2.24536,-2.22354 3.36804,-3.33532 2.37188,0.0235 2.13613,0.4371 3.91989,-2.48971 0.12565,-0.20616 -0.39483,-0.40598 -0.33795,-0.64062 0.0532,-0.21919 0.49958,-0.1398 0.57838,-0.35112 0.95791,-3.97634 0.38189,-2.31273 1.49275,-5.06618 -0.57697,-2.48543 -0.20197,0.4072 2.19804,-3.52236 0.29421,-0.48172 0.0525,-1.12972 0.13665,-1.68787 0.21422,-1.42027 0.0419,-2.99658 0.75774,-4.24185 2.26852,-3.94652 3.7221,-3.56261 7.34603,-4.28262 -0.0328,-6.1194 1.74487,-2.53074 3.53652,-4.40836 0.76276,-0.79937 0.81428,-2.13884 1.62595,-2.8885 5.11067,-4.72015 3.87096,0.59742 4.18137,-5.81643 1.50269,3.84277 0.98731,-7.55002 6.42397,-5.10512 0.73099,0.32872 -2.65413,0.72656 -2.40427,-0.035 0.41416,-1.26238 2.13118,-1.58702 3.19677,-2.38053 0.11678,-0.22369 0.23356,-0.44737 0.35033,-0.67106 2.31803,-5.11422 9.55062,-1.83604 7.2326,3.27819 l 0,0 c -0.74738,0.77198 -1.49474,1.54396 -2.24211,2.31595 0.80365,1.82962 1.30827,2.83034 -1.0859,5.70473 -0.577,0.69273 -1.64039,-0.87282 -2.54021,-0.92878 -0.61699,-0.0383 -1.11605,0.71619 -1.73194,0.66308 -0.39518,-0.034 0.6257,-0.48766 0.93854,-0.7315 -0.76069,1.02812 -1.52137,2.05622 -2.28206,3.08433 -2.88176,3.55565 -1.60833,1.2392 -2.54477,7.51079 -0.89788,1.13587 -3.10581,0.0847 -4.22673,1.00117 -0.80995,0.66221 -0.0996,2.21816 -0.73101,3.05231 -0.82867,1.09466 -3.68271,-4.2954 -4.10904,-0.28396 -2.46648,2.83476 -1.94123,5.54813 -3.70055,8.64647 -0.64484,1.13564 -1.71206,1.99876 -2.3321,3.14812 -1.09917,2.03753 3.78428,-0.86654 -1.43219,1.53388 -1.87362,5.64034 -2.22191,-1.61706 -2.93046,5.95113 -0.16571,1.76989 1.23443,4.01586 0.0404,5.33275 -6.01607,6.63502 -1.32361,-16.02882 -3.94259,3.35989 -0.6786,-0.56135 -1.26063,-2.10204 -2.03579,-1.68404 -0.71845,0.38743 1.60022,1.49917 1.13495,2.16982 -2.45668,3.54108 -9.65441,-2.04722 -4.56728,5.17977 -0.44057,-0.18178 -1.02828,-0.9209 -1.32173,-0.54535 -3.84158,4.9165 0.32514,8.80694 -0.59669,12.77527 -0.76073,3.27488 -13.72716,-3.01856 -10.07541,-0.46711 0.41849,-1.98393 0.20256,-4.21902 1.25546,-5.9518 0.43584,-0.71727 1.78332,-0.66522 2.50649,-0.23927 0.46024,0.27109 -1.78418,1.14507 -1.2832,0.95979 6.32179,-2.3382 6.70652,-7.47935 8.72106,-13.34685 2.9929,-4.34663 9.13999,-0.11403 6.14709,4.23261 z"
       inkscape:connector-curvature="0" />
  </g>
  <g
     transform="translate(0,-28.362161)"
     id="g3390"
     inkscape:groupmode="layer"
     inkscape:label="Layer 1 copy"
     style="display:none">
    <text
       sodipodi:linespacing="125%"
       id="text3392"
       y="512.36218"
       x="337.14285"
       style="font-style:normal;font-variant:normal;font-weight:normal;font-stretch:normal;font-size:180px;line-height:125%;font-family:Trattatello;-inkscape-font-specification:'Trattatello, Normal';text-align:start;letter-spacing:0px;word-spacing:0px;writing-mode:lr-tb;text-anchor:start;fill:#000000;fill-opacity:1;stroke:none;stroke-width:1px;stroke-linecap:butt;stroke-linejoin:miter;stroke-opacity:1"
       xml:space="preserve"><tspan
         style="font-size:375px"
         y="512.36218"
         x="337.14285"
         id="tspan3394"
         sodipodi:role="line">H</tspan></text>
    <text
       sodipodi:linespacing="125%"
       id="text3396"
       y="472.36218"
       x="548.57141"
       style="font-style:normal;font-variant:normal;font-weight:normal;font-stretch:normal;font-size:80px;line-height:125%;font-family:Trattatello;-inkscape-font-specification:'Trattatello, Normal';text-align:start;letter-spacing:0px;word-spacing:0px;writing-mode:lr-tb;text-anchor:start;fill:#000000;fill-opacity:1;stroke:none;stroke-width:1px;stroke-linecap:butt;stroke-linejoin:miter;stroke-opacity:1"
       xml:space="preserve"><tspan
         style="font-size:162.5px"
         y="472.36218"
         x="548.57141"
         id="tspan3398"
         sodipodi:role="line">inh</tspan></text>
    <text
       sodipodi:linespacing="125%"
       id="text3400"
       y="760.93365"
       x="182.85715"
       style="font-style:normal;font-variant:normal;font-weight:normal;font-stretch:normal;font-size:180px;line-height:125%;font-family:Trattatello;-inkscape-font-specification:'Trattatello, Normal';text-align:start;letter-spacing:0px;word-spacing:0px;writing-mode:lr-tb;text-anchor:start;fill:#000000;fill-opacity:1;stroke:none;stroke-width:1px;stroke-linecap:butt;stroke-linejoin:miter;stroke-opacity:1"
       xml:space="preserve"><tspan
         style="font-size:625px"
         y="760.93365"
         x="182.85715"
         id="tspan3402"
         sodipodi:role="line">A</tspan></text>
    <text
       sodipodi:linespacing="125%"
       id="text3404"
       y="718.07648"
       x="477.14291"
       style="font-style:normal;font-variant:normal;font-weight:normal;font-stretch:normal;font-size:90px;line-height:125%;font-family:Trattatello;-inkscape-font-specification:'Trattatello, Normal';text-align:start;letter-spacing:0px;word-spacing:0px;writing-mode:lr-tb;text-anchor:start;fill:#000000;fill-opacity:1;stroke:none;stroke-width:1px;stroke-linecap:butt;stroke-linejoin:miter;stroke-opacity:1"
       xml:space="preserve"><tspan
         dx="0 -12"
         style="font-size:262.5px"
         y="718.07648"
         x="477.14291"
         id="tspan3406"
         sodipodi:role="line">nh</tspan></text>
  </g>
</svg>
